<?xml version="1.0" encoding="utf-8"?>
<!-- Generator: Adobe Illustrator 16.0.0, SVG Export Plug-In . SVG Version: 6.00 Build 0)  -->
<!DOCTYPE svg PUBLIC "-//W3C//DTD SVG 1.1//EN" "http://www.w3.org/Graphics/SVG/1.1/DTD/svg11.dtd">
<svg version="1.1" id="Layer_1" xmlns="http://www.w3.org/2000/svg" xmlns:xlink="http://www.w3.org/1999/xlink" x="0px" y="0px"
	 width="127px" height="36px" viewBox="0 0 127 36" enable-background="new 0 0 127 36" xml:space="preserve">
<g>
	<path d="M8.606,11.487H2.239V8.109h17.34v3.377h-6.368v14.535H8.606V11.487z"/>
	<path d="M40.812,8.109l-8.613,17.912H27.65L19.065,8.109h4.975l6.055,12.794l6.14-12.794H40.812z"/>
	<path d="M57.864,22.695v3.326H42.457V8.109h15.038v3.326H47.033v3.89h9.239v3.225h-9.239v4.146H57.864z"/>
	<path d="M65.649,11.487h-6.367V8.109h17.341v3.377h-6.368v14.535h-4.605V11.487z"/>
	<path d="M85.572,24.256l1.563-3.122c1.678,1.101,4.179,1.868,6.566,1.868c2.729,0,3.838-0.818,3.838-1.919
		c0-3.353-11.569-1.05-11.569-7.703c0-3.045,2.729-5.578,8.386-5.578c2.501,0,5.06,0.537,6.907,1.586l-1.421,3.147
		c-1.848-0.947-3.752-1.407-5.515-1.407c-2.729,0-3.781,0.921-3.781,2.047c0,3.301,11.57,1.023,11.57,7.6
		c0,2.994-2.758,5.553-8.443,5.553C90.519,26.328,87.335,25.484,85.572,24.256z"/>
	<path d="M118.375,22.184h-9.239l-1.763,3.838h-4.719l8.869-17.912h4.549l8.897,17.912h-4.833L118.375,22.184z M116.925,19.036
		l-3.155-6.858l-3.155,6.858H116.925z"/>
</g>
</svg>
