<?xml version="1.0" encoding="utf-8"?>
<!-- Generator: Adobe Illustrator 16.0.0, SVG Export Plug-In . SVG Version: 6.00 Build 0)  -->
<!DOCTYPE svg PUBLIC "-//W3C//DTD SVG 1.1//EN" "http://www.w3.org/Graphics/SVG/1.1/DTD/svg11.dtd">
<svg version="1.1" id="Layer_1" xmlns="http://www.w3.org/2000/svg" xmlns:xlink="http://www.w3.org/1999/xlink" x="0px" y="0px"
	 width="127px" height="36px" viewBox="0 0 127 36" enable-background="new 0 0 127 36" xml:space="preserve">
<path fill="#2C3038" d="M3.156,27.168c-0.859,0.037-1.512-0.094-1.96-0.393c-0.429-0.299-0.644-0.756-0.644-1.371
	c0-0.561,0.14-0.971,0.42-1.232c0.28-0.279,0.718-0.438,1.316-0.477l0.896-0.055C4.528,23.584,5.2,22.791,5.2,21.26V9.276
	c0-0.653,0.205-1.176,0.616-1.568S6.759,7.12,7.412,7.12S8.588,7.316,8.98,7.708C9.391,8.1,9.596,8.623,9.596,9.276v11.928
	c0,3.696-1.848,5.665-5.544,5.907L3.156,27.168z M23.455,12.972c0.653,0,1.167,0.177,1.54,0.532c0.392,0.355,0.588,0.84,0.588,1.456
	v10.276c0,0.578-0.205,1.045-0.616,1.4c-0.392,0.354-0.905,0.531-1.54,0.531c-0.597,0-1.073-0.168-1.428-0.504
	c-0.354-0.336-0.532-0.784-0.532-1.344v-0.28c-0.429,0.71-0.999,1.251-1.708,1.624c-0.691,0.373-1.475,0.561-2.352,0.561
	c-1.736,0-3.033-0.477-3.892-1.429c-0.84-0.971-1.26-2.427-1.26-4.368V14.96c0-0.616,0.187-1.101,0.56-1.456
	c0.392-0.354,0.915-0.532,1.568-0.532s1.167,0.177,1.54,0.532c0.373,0.355,0.56,0.84,0.56,1.456v6.552
	c0,0.822,0.168,1.428,0.504,1.82c0.354,0.393,0.887,0.588,1.596,0.588c0.821,0,1.484-0.279,1.988-0.84
	c0.522-0.561,0.784-1.297,0.784-2.212V14.96c0-0.616,0.187-1.101,0.56-1.456C22.288,13.149,22.801,12.972,23.455,12.972z
	 M44.927,12.916c1.494,0,2.642,0.458,3.444,1.372c0.803,0.896,1.204,2.371,1.204,4.424v6.468c0,0.654-0.196,1.148-0.588,1.484
	c-0.392,0.336-0.896,0.504-1.512,0.504c-0.598,0-1.102-0.168-1.512-0.504s-0.616-0.83-0.616-1.484v-6.523
	c0-0.896-0.159-1.521-0.476-1.876c-0.299-0.373-0.766-0.56-1.4-0.56c-0.784,0-1.41,0.271-1.876,0.812
	c-0.467,0.541-0.7,1.297-0.7,2.268v5.88c0,0.654-0.196,1.148-0.588,1.484s-0.896,0.504-1.512,0.504
	c-0.597,0-1.102-0.168-1.512-0.504c-0.411-0.336-0.616-0.83-0.616-1.484v-6.523c0-0.896-0.159-1.521-0.476-1.876
	c-0.299-0.373-0.765-0.56-1.4-0.56c-0.784,0-1.409,0.271-1.876,0.812c-0.467,0.541-0.7,1.297-0.7,2.268v5.88
	c0,0.654-0.205,1.148-0.616,1.484c-0.392,0.336-0.887,0.504-1.484,0.504c-0.598,0-1.102-0.168-1.512-0.504s-0.616-0.83-0.616-1.484
	V14.904c0-0.616,0.206-1.092,0.616-1.428c0.429-0.336,0.942-0.504,1.54-0.504c0.56,0,1.026,0.168,1.4,0.504
	c0.374,0.317,0.56,0.765,0.56,1.344v0.28c0.448-0.709,1.026-1.251,1.736-1.624c0.728-0.374,1.549-0.56,2.464-0.56
	c0.989,0,1.82,0.205,2.492,0.616c0.69,0.392,1.223,1.036,1.596,1.932c0.429-0.784,1.036-1.4,1.82-1.848
	C43.014,13.149,43.919,12.916,44.927,12.916z M60.433,12.916c1.176,0,2.221,0.308,3.136,0.924c0.934,0.598,1.652,1.447,2.156,2.548
	c0.522,1.083,0.783,2.333,0.783,3.752c0,1.418-0.261,2.668-0.783,3.752c-0.504,1.063-1.213,1.885-2.128,2.463
	c-0.915,0.579-1.969,0.869-3.164,0.869c-0.934,0-1.783-0.188-2.548-0.561c-0.747-0.393-1.325-0.934-1.736-1.624v5.292
	c0,0.561-0.187,1.008-0.56,1.344c-0.373,0.336-0.868,0.504-1.484,0.504c-0.653,0-1.186-0.178-1.596-0.531
	c-0.392-0.355-0.588-0.822-0.588-1.4V14.96c0-0.597,0.187-1.073,0.56-1.428c0.392-0.374,0.905-0.56,1.54-0.56
	s1.139,0.187,1.512,0.56c0.374,0.354,0.56,0.831,0.56,1.428v0.224c0.411-0.709,0.999-1.26,1.764-1.652
	C58.622,13.121,59.48,12.916,60.433,12.916z M59.2,24.004c0.989,0,1.755-0.326,2.296-0.98c0.541-0.672,0.812-1.633,0.812-2.883
	c0-1.27-0.271-2.25-0.812-2.94c-0.542-0.709-1.307-1.064-2.296-1.064s-1.754,0.345-2.296,1.036
	c-0.541,0.672-0.812,1.643-0.812,2.912c0,1.25,0.271,2.221,0.812,2.912C57.446,23.668,58.211,24.004,59.2,24.004z M73.461,27.225
	c-1.139,0-2.129-0.094-2.969-0.281c-0.84-0.186-1.577-0.484-2.212-0.896c-0.28-0.168-0.495-0.392-0.644-0.672
	c-0.15-0.28-0.225-0.597-0.225-0.952c0-0.43,0.121-0.783,0.364-1.064c0.243-0.298,0.541-0.447,0.896-0.447
	c0.243,0,0.486,0.047,0.729,0.141c0.242,0.074,0.494,0.168,0.756,0.279c0.522,0.242,1.036,0.438,1.54,0.588
	c0.504,0.131,1.13,0.196,1.876,0.196c0.653,0,1.157-0.103,1.512-0.308c0.373-0.206,0.561-0.486,0.561-0.841
	c0-0.261-0.084-0.466-0.252-0.616c-0.15-0.168-0.439-0.316-0.868-0.447c-0.43-0.131-1.11-0.289-2.044-0.477
	c-1.662-0.316-2.855-0.793-3.584-1.428s-1.092-1.521-1.092-2.66c0-0.84,0.252-1.596,0.756-2.268
	c0.522-0.672,1.232-1.194,2.128-1.568c0.896-0.392,1.903-0.588,3.024-0.588c0.803,0,1.586,0.103,2.352,0.308
	c0.766,0.205,1.446,0.495,2.044,0.868c0.579,0.355,0.868,0.877,0.868,1.568c0,0.448-0.121,0.821-0.364,1.12
	c-0.243,0.299-0.542,0.448-0.896,0.448c-0.43,0-0.943-0.168-1.541-0.504c-0.467-0.243-0.896-0.42-1.287-0.532
	c-0.373-0.13-0.822-0.196-1.344-0.196c-0.579,0-1.037,0.112-1.373,0.336c-0.336,0.205-0.504,0.495-0.504,0.868
	c0,0.392,0.196,0.69,0.588,0.896c0.393,0.205,1.148,0.411,2.269,0.616c1.251,0.243,2.23,0.542,2.94,0.896
	c0.709,0.336,1.223,0.766,1.539,1.289c0.318,0.521,0.477,1.186,0.477,1.987c0,1.325-0.551,2.38-1.652,3.164
	C76.746,26.832,75.289,27.225,73.461,27.225z M88.564,24.088c0.56,0.037,0.971,0.178,1.231,0.42
	c0.262,0.242,0.392,0.598,0.392,1.064c0,0.541-0.214,0.951-0.644,1.232c-0.429,0.279-1.045,0.391-1.848,0.336l-0.784-0.057
	c-3.267-0.262-4.9-1.969-4.9-5.124v-5.544h-1.119c-0.617,0-1.083-0.131-1.4-0.392c-0.317-0.28-0.477-0.672-0.477-1.176
	c0-0.523,0.159-0.915,0.477-1.176c0.317-0.28,0.783-0.42,1.4-0.42h1.119v-2.184c0-0.616,0.188-1.101,0.561-1.456
	c0.392-0.354,0.914-0.532,1.568-0.532c0.652,0,1.166,0.177,1.539,0.532c0.373,0.355,0.561,0.84,0.561,1.456v2.184h1.96
	c1.269,0,1.903,0.532,1.903,1.596c0,0.504-0.158,0.896-0.476,1.176c-0.317,0.261-0.793,0.392-1.428,0.392h-1.96v5.852
	c0,0.561,0.131,0.99,0.393,1.289c0.261,0.279,0.643,0.438,1.147,0.476L88.564,24.088z M97.096,12.916c2.017,0,3.51,0.495,4.48,1.484
	c0.971,0.971,1.456,2.464,1.456,4.48v6.328c0,0.616-0.177,1.101-0.532,1.456c-0.354,0.336-0.85,0.504-1.484,0.504
	c-0.597,0-1.082-0.178-1.455-0.531c-0.355-0.374-0.532-0.85-0.532-1.429v-0.196c-0.28,0.691-0.747,1.232-1.399,1.625
	c-0.654,0.391-1.42,0.588-2.297,0.588c-0.934,0-1.782-0.188-2.548-0.561c-0.747-0.373-1.344-0.896-1.792-1.568
	c-0.43-0.672-0.645-1.418-0.645-2.24c0-1.008,0.252-1.801,0.756-2.379c0.523-0.579,1.354-1,2.492-1.261s2.697-0.392,4.676-0.392H99
	V18.32c0-0.784-0.178-1.353-0.531-1.708c-0.336-0.354-0.906-0.532-1.709-0.532s-1.959,0.28-3.472,0.84
	c-0.429,0.206-0.793,0.308-1.092,0.308c-0.411,0-0.737-0.14-0.979-0.42c-0.243-0.299-0.365-0.682-0.365-1.148
	c0-0.374,0.084-0.682,0.252-0.924s0.439-0.467,0.813-0.672c0.654-0.354,1.447-0.635,2.381-0.84
	C95.248,13.019,96.182,12.916,97.096,12.916z M96.256,24.313c0.822,0,1.484-0.271,1.988-0.813C98.748,22.939,99,22.221,99,21.344
	v-0.476h-0.476c-1.513,0-2.576,0.121-3.192,0.364c-0.598,0.242-0.896,0.681-0.896,1.315c0,0.522,0.168,0.952,0.505,1.288
	C95.295,24.153,95.733,24.313,96.256,24.313z M113.557,12.972c0.561-0.038,1,0.093,1.316,0.392c0.336,0.28,0.504,0.709,0.504,1.288
	c0,0.616-0.148,1.073-0.447,1.372s-0.83,0.485-1.597,0.56l-0.84,0.084c-1.026,0.112-1.772,0.448-2.24,1.008
	c-0.448,0.56-0.672,1.279-0.672,2.156v5.348c0,0.654-0.205,1.148-0.616,1.484c-0.392,0.336-0.886,0.504-1.484,0.504
	c-0.615,0-1.129-0.168-1.539-0.504c-0.393-0.336-0.588-0.83-0.588-1.484V14.904c0-0.616,0.205-1.092,0.615-1.428
	c0.411-0.336,0.906-0.504,1.484-0.504c0.561,0,1.027,0.168,1.4,0.504c0.373,0.317,0.56,0.765,0.56,1.344v0.756
	c0.336-0.803,0.84-1.419,1.512-1.848c0.691-0.429,1.438-0.672,2.24-0.728L113.557,12.972z M124.764,24.088
	c0.56,0.037,0.971,0.178,1.231,0.42s0.392,0.598,0.392,1.064c0,0.541-0.215,0.951-0.644,1.232c-0.429,0.279-1.045,0.391-1.849,0.336
	l-0.783-0.057c-3.268-0.262-4.9-1.969-4.9-5.124v-5.544h-1.12c-0.616,0-1.083-0.131-1.399-0.392
	c-0.317-0.28-0.477-0.672-0.477-1.176c0-0.523,0.159-0.915,0.477-1.176c0.316-0.28,0.783-0.42,1.399-0.42h1.12v-2.184
	c0-0.616,0.188-1.101,0.561-1.456c0.392-0.354,0.914-0.532,1.567-0.532s1.167,0.177,1.54,0.532c0.373,0.355,0.561,0.84,0.561,1.456
	v2.184h1.959c1.27,0,1.904,0.532,1.904,1.596c0,0.504-0.158,0.896-0.476,1.176c-0.317,0.261-0.793,0.392-1.429,0.392h-1.959v5.852
	c0,0.561,0.131,0.99,0.392,1.289c0.261,0.279,0.644,0.438,1.147,0.476L124.764,24.088z"/>
</svg>
