<?xml version="1.0" encoding="utf-8"?>
<!-- Generator: Adobe Illustrator 16.0.0, SVG Export Plug-In . SVG Version: 6.00 Build 0)  -->
<!DOCTYPE svg PUBLIC "-//W3C//DTD SVG 1.1//EN" "http://www.w3.org/Graphics/SVG/1.1/DTD/svg11.dtd">
<svg version="1.1" id="Layer_1" xmlns="http://www.w3.org/2000/svg" xmlns:xlink="http://www.w3.org/1999/xlink" x="0px" y="0px"
	 width="98.501px" height="19.181px" viewBox="0 0 98.501 19.181" enable-background="new 0 0 98.501 19.181" xml:space="preserve">
<g>
	<path d="M6.372,4.349H0.995V1.181h14.641v3.168H10.26v13.633H6.372V4.349z"/>
	<path d="M33.565,1.181l-7.272,16.801h-3.84L15.204,1.181h4.2l5.112,12.001l5.185-12.001H33.565z"/>
	<path d="M47.964,14.862v3.12H34.955V1.181h12.697v3.12h-8.833V7.95h7.801v3.024h-7.801v3.889H47.964z"/>
	<path d="M54.54,4.349h-5.376V1.181h14.641v3.168h-5.377v13.633H54.54V4.349z"/>
	<path fill="#009B72" d="M64.45,16.326l1.32-2.929c1.416,1.033,3.529,1.753,5.545,1.753c2.305,0,3.24-0.769,3.24-1.8
		c0-3.145-9.77-0.985-9.77-7.225c0-2.856,2.305-5.232,7.082-5.232c2.111,0,4.271,0.504,5.832,1.488l-1.201,2.953
		c-1.559-0.888-3.168-1.32-4.656-1.32c-2.303,0-3.191,0.864-3.191,1.92c0,3.096,9.77,0.96,9.77,7.128
		c0,2.809-2.328,5.209-7.129,5.209C68.628,18.271,65.938,17.479,64.45,16.326z"/>
	<path fill="#009B72" d="M92.147,14.382h-7.801l-1.488,3.601h-3.984l7.488-16.801h3.842l7.512,16.801h-4.08L92.147,14.382z
		 M90.923,11.43l-2.664-6.433l-2.664,6.433H90.923z"/>
</g>
</svg>
