<?xml version="1.0" encoding="utf-8"?>
<!-- Generator: Adobe Illustrator 16.0.0, SVG Export Plug-In . SVG Version: 6.00 Build 0)  -->
<!DOCTYPE svg PUBLIC "-//W3C//DTD SVG 1.1//EN" "http://www.w3.org/Graphics/SVG/1.1/DTD/svg11.dtd">
<svg version="1.1" id="Layer_1" xmlns="http://www.w3.org/2000/svg" xmlns:xlink="http://www.w3.org/1999/xlink" x="0px" y="0px"
	 width="97.46px" height="18.157px" viewBox="0 0 97.46 18.157" enable-background="new 0 0 97.46 18.157" xml:space="preserve">
<g>
	<path fill="#2D3038" d="M6.369,16.963c-0.408-0.392-0.612-0.916-0.612-1.572V4.087H2.373c-0.704,0-1.228-0.147-1.572-0.444
		C0.457,3.347,0.285,2.896,0.285,2.287c0-0.608,0.172-1.056,0.516-1.344c0.344-0.288,0.868-0.432,1.572-0.432h11.232
		c0.704,0,1.228,0.144,1.572,0.432c0.344,0.288,0.516,0.736,0.516,1.344c0,0.608-0.172,1.06-0.516,1.356
		c-0.344,0.296-0.868,0.444-1.572,0.444h-3.384v11.304c0,0.656-0.204,1.18-0.612,1.572c-0.408,0.392-0.948,0.588-1.62,0.588
		S6.777,17.355,6.369,16.963z"/>
	<path fill="#2D3038" d="M30.477,0.679c0.32-0.192,0.672-0.288,1.056-0.288c0.576,0,1.096,0.184,1.56,0.552
		c0.464,0.368,0.696,0.832,0.696,1.392c0,0.272-0.072,0.552-0.216,0.84l-6.336,13.08c-0.208,0.432-0.52,0.764-0.936,0.996
		c-0.417,0.231-0.864,0.348-1.344,0.348s-0.928-0.116-1.344-0.348c-0.417-0.232-0.729-0.564-0.936-0.996l-6.336-13.08
		c-0.128-0.256-0.192-0.536-0.192-0.84c0-0.543,0.24-1.004,0.72-1.38c0.48-0.375,1.016-0.564,1.608-0.564
		c0.384,0,0.74,0.096,1.068,0.288c0.328,0.192,0.58,0.48,0.756,0.864l4.728,10.224l4.704-10.224
		C29.909,1.159,30.156,0.871,30.477,0.679z"/>
	<path fill="#2D3038" d="M35.949,16.904c-0.352-0.353-0.528-0.856-0.528-1.513V2.551c0-0.656,0.176-1.16,0.528-1.512
		c0.352-0.352,0.856-0.528,1.512-0.528h8.304c0.688,0,1.208,0.144,1.56,0.432c0.352,0.288,0.527,0.704,0.527,1.248
		c0,1.152-0.695,1.728-2.087,1.728h-6.048v3.216h5.568c1.392,0,2.088,0.568,2.088,1.704c0,0.544-0.176,0.96-0.528,1.248
		c-0.352,0.288-0.872,0.432-1.56,0.432h-5.568v3.504h6.048c1.392,0,2.087,0.576,2.087,1.728c0,0.544-0.176,0.96-0.527,1.249
		c-0.352,0.287-0.872,0.432-1.56,0.432h-8.304C36.805,17.431,36.3,17.255,35.949,16.904z"/>
	<path fill="#2D3038" d="M54.56,16.963c-0.408-0.392-0.612-0.916-0.612-1.572V4.087h-3.384c-0.704,0-1.228-0.147-1.571-0.444
		c-0.345-0.296-0.517-0.748-0.517-1.356c0-0.608,0.172-1.056,0.517-1.344c0.344-0.288,0.867-0.432,1.571-0.432h11.232
		c0.704,0,1.228,0.144,1.572,0.432c0.344,0.288,0.516,0.736,0.516,1.344c0,0.608-0.172,1.06-0.516,1.356
		c-0.345,0.296-0.868,0.444-1.572,0.444h-3.384v11.304c0,0.656-0.204,1.18-0.612,1.572c-0.408,0.392-0.948,0.588-1.62,0.588
		S54.968,17.355,54.56,16.963z"/>
	<path fill="#2D3038" d="M67.64,17.227c-1.096-0.28-1.996-0.668-2.7-1.164c-0.272-0.208-0.468-0.424-0.588-0.648
		c-0.12-0.224-0.18-0.512-0.18-0.864c0-0.48,0.144-0.896,0.432-1.248s0.624-0.528,1.008-0.528c0.208,0,0.408,0.032,0.601,0.096
		c0.191,0.064,0.432,0.184,0.72,0.36c0.656,0.369,1.308,0.632,1.956,0.792c0.647,0.16,1.379,0.24,2.196,0.24
		c0.943,0,1.66-0.14,2.148-0.42s0.732-0.692,0.732-1.236c0-0.368-0.229-0.684-0.686-0.948c-0.455-0.264-1.324-0.524-2.604-0.78
		c-1.584-0.336-2.824-0.736-3.719-1.2c-0.896-0.464-1.524-1.012-1.885-1.644c-0.359-0.632-0.54-1.396-0.54-2.292
		c0-1.024,0.304-1.952,0.912-2.784c0.608-0.832,1.444-1.484,2.508-1.956c1.064-0.472,2.259-0.708,3.589-0.708
		c1.166,0,2.207,0.128,3.119,0.384s1.744,0.656,2.496,1.2c0.287,0.208,0.492,0.428,0.611,0.66c0.121,0.232,0.18,0.516,0.18,0.852
		c0,0.48-0.139,0.896-0.42,1.248c-0.279,0.352-0.611,0.528-0.996,0.528c-0.207,0-0.398-0.028-0.574-0.084
		c-0.178-0.056-0.426-0.18-0.744-0.372c-0.08-0.048-0.309-0.171-0.686-0.372c-0.375-0.2-0.814-0.36-1.318-0.48
		c-0.504-0.12-1.053-0.18-1.645-0.18c-0.816,0-1.473,0.156-1.969,0.468s-0.744,0.724-0.744,1.236c0,0.304,0.088,0.552,0.263,0.744
		c0.176,0.192,0.504,0.38,0.984,0.564c0.48,0.185,1.191,0.372,2.137,0.564c1.535,0.336,2.744,0.74,3.623,1.212
		c0.881,0.472,1.504,1.02,1.873,1.644c0.367,0.624,0.551,1.36,0.551,2.208c0,1.056-0.295,1.988-0.887,2.796
		c-0.592,0.808-1.42,1.432-2.484,1.873c-1.064,0.439-2.301,0.659-3.707,0.659C69.924,17.647,68.736,17.507,67.64,17.227z"/>
	<path fill="#2D3038" d="M96.908,15.607c0,0.528-0.213,0.977-0.637,1.344c-0.424,0.369-0.908,0.553-1.451,0.553
		c-0.369,0-0.705-0.096-1.008-0.288c-0.305-0.192-0.545-0.48-0.721-0.864l-1.08-2.424h-7.775l-1.105,2.424
		c-0.176,0.384-0.42,0.672-0.73,0.864c-0.313,0.192-0.652,0.288-1.021,0.288c-0.543,0-1.035-0.184-1.475-0.553
		c-0.441-0.367-0.66-0.815-0.66-1.344c0-0.288,0.072-0.583,0.215-0.888l6.336-13.008c0.209-0.432,0.518-0.764,0.924-0.996
		c0.408-0.232,0.861-0.348,1.357-0.348c0.479,0,0.928,0.116,1.344,0.348s0.727,0.564,0.936,0.996l6.336,13.008
		C96.836,15.023,96.908,15.319,96.908,15.607z M85.723,10.615h4.801l-2.4-5.352L85.723,10.615z"/>
</g>
</svg>
