<?xml version="1.0" encoding="utf-8"?>
<!-- Generator: Adobe Illustrator 16.0.0, SVG Export Plug-In . SVG Version: 6.00 Build 0)  -->
<!DOCTYPE svg PUBLIC "-//W3C//DTD SVG 1.1//EN" "http://www.w3.org/Graphics/SVG/1.1/DTD/svg11.dtd">
<svg version="1.1" id="Layer_1" xmlns="http://www.w3.org/2000/svg" xmlns:xlink="http://www.w3.org/1999/xlink" x="0px" y="0px"
	 width="80.143px" height="20.611px" viewBox="0 0 80.143 20.611" enable-background="new 0 0 80.143 20.611" xml:space="preserve">
<g>
	<path d="M18.407,4.89c0.704,0.776,1.056,2.084,1.056,3.924v5.184c0,0.657-0.204,1.149-0.612,1.476
		c-0.408,0.328-0.917,0.492-1.524,0.492c-0.608,0-1.116-0.164-1.524-0.492c-0.408-0.327-0.612-0.819-0.612-1.476v-5.28
		c0-0.64-0.112-1.088-0.336-1.344c-0.224-0.255-0.552-0.384-0.984-0.384c-0.561,0-1.008,0.2-1.344,0.6s-0.504,0.952-0.504,1.656
		v4.752c0,0.657-0.2,1.149-0.6,1.476c-0.4,0.328-0.912,0.492-1.536,0.492c-0.608,0-1.116-0.164-1.524-0.492
		c-0.408-0.327-0.612-0.819-0.612-1.476v-5.28c0-0.64-0.112-1.088-0.336-1.344C7.191,7.118,6.863,6.99,6.432,6.99
		c-0.561,0-1.004,0.2-1.332,0.6c-0.328,0.4-0.492,0.952-0.492,1.656v4.752c0,0.657-0.204,1.149-0.612,1.476
		c-0.408,0.328-0.917,0.492-1.524,0.492s-1.116-0.164-1.524-0.492c-0.408-0.327-0.612-0.819-0.612-1.476V5.694
		c0-0.624,0.212-1.1,0.636-1.428c0.424-0.328,0.932-0.492,1.524-0.492c0.56,0,1.028,0.148,1.404,0.444
		c0.376,0.296,0.572,0.724,0.588,1.284c0.784-1.184,1.984-1.776,3.6-1.776c1.712,0,2.856,0.696,3.432,2.088
		c0.399-0.64,0.936-1.148,1.608-1.524c0.672-0.375,1.432-0.564,2.28-0.564C16.704,3.726,17.703,4.114,18.407,4.89z"/>
	<path d="M30.479,4.086c0.304-0.192,0.64-0.288,1.008-0.288c0.528,0,1,0.176,1.416,0.528c0.416,0.352,0.624,0.776,0.624,1.272
		c0,0.272-0.064,0.536-0.192,0.792l-6.36,12.744c-0.192,0.399-0.444,0.696-0.756,0.888c-0.312,0.192-0.652,0.288-1.02,0.288
		c-0.528,0-0.996-0.172-1.404-0.516c-0.408-0.345-0.612-0.765-0.612-1.261c0-0.271,0.072-0.551,0.216-0.84l1.56-3.144l-4.08-8.16
		c-0.128-0.288-0.192-0.543-0.192-0.768c0-0.512,0.224-0.948,0.672-1.308c0.448-0.36,0.952-0.54,1.512-0.54
		c0.384,0,0.74,0.1,1.068,0.3c0.328,0.2,0.58,0.5,0.756,0.9l2.544,5.52l2.52-5.52C29.935,4.574,30.175,4.278,30.479,4.086z"/>
	<path d="M43.822,14.357c0,0.561-0.216,0.977-0.647,1.248c-0.433,0.271-1.049,0.385-1.848,0.336l-0.672-0.048
		c-1.44-0.111-2.532-0.548-3.276-1.308s-1.116-1.82-1.116-3.18V7.158h-0.696c-1.28,0-1.92-0.528-1.92-1.584
		c0-1.04,0.64-1.56,1.92-1.56h0.696v-1.56c0-0.608,0.192-1.092,0.576-1.452c0.384-0.36,0.904-0.54,1.56-0.54
		c0.656,0,1.176,0.18,1.56,0.54c0.384,0.36,0.576,0.844,0.576,1.452v1.56h1.32c1.28,0,1.92,0.52,1.92,1.56
		c0,1.056-0.64,1.584-1.92,1.584h-1.32v4.608c0,0.304,0.092,0.561,0.276,0.768c0.184,0.208,0.42,0.32,0.708,0.336l0.696,0.048
		C43.286,12.982,43.822,13.462,43.822,14.357z"/>
	<path d="M53.842,4.086c0.313-0.192,0.651-0.288,1.021-0.288c0.527,0,0.995,0.176,1.403,0.528c0.408,0.352,0.612,0.776,0.612,1.272
		c0,0.272-0.064,0.536-0.192,0.792l-4.2,8.353c-0.191,0.4-0.468,0.707-0.827,0.924c-0.36,0.216-0.757,0.324-1.188,0.324
		s-0.832-0.108-1.2-0.324c-0.368-0.217-0.647-0.523-0.84-0.924l-4.2-8.353c-0.128-0.288-0.191-0.543-0.191-0.768
		c0-0.512,0.22-0.948,0.66-1.308c0.439-0.36,0.947-0.54,1.523-0.54c0.384,0,0.74,0.1,1.068,0.3c0.327,0.2,0.579,0.5,0.756,0.9
		l2.544,5.496l2.52-5.496C53.286,4.574,53.53,4.278,53.842,4.086z"/>
	<path d="M68.434,12.462c0.232,0.288,0.348,0.664,0.348,1.128c0,0.64-0.311,1.128-0.936,1.464c-0.543,0.272-1.188,0.501-1.932,0.685
		c-0.744,0.184-1.428,0.275-2.052,0.275c-1.312,0-2.456-0.248-3.432-0.744c-0.977-0.496-1.729-1.208-2.256-2.136
		c-0.528-0.928-0.792-2.016-0.792-3.264c0-1.184,0.252-2.244,0.756-3.18s1.208-1.664,2.112-2.184c0.903-0.52,1.923-0.78,3.06-0.78
		c1.104,0,2.072,0.24,2.905,0.72c0.83,0.48,1.475,1.16,1.932,2.04c0.455,0.88,0.684,1.912,0.684,3.096
		c0,0.369-0.084,0.652-0.252,0.852c-0.168,0.2-0.412,0.3-0.732,0.3h-6.335c0.111,0.768,0.359,1.32,0.744,1.656
		c0.384,0.336,0.951,0.504,1.704,0.504c0.399,0,0.768-0.043,1.104-0.132c0.336-0.088,0.711-0.212,1.127-0.372
		c0.24-0.096,0.477-0.18,0.709-0.252c0.23-0.072,0.443-0.108,0.635-0.108C67.903,12.03,68.202,12.174,68.434,12.462z M62.087,7.146
		c-0.336,0.36-0.537,0.884-0.601,1.572h3.769c-0.097-1.408-0.705-2.112-1.824-2.112C62.87,6.606,62.423,6.786,62.087,7.146z"/>
	<path d="M79.079,14.357c0,0.561-0.217,0.977-0.648,1.248s-1.049,0.385-1.848,0.336l-0.672-0.048
		c-1.439-0.111-2.533-0.548-3.275-1.308c-0.744-0.76-1.117-1.82-1.117-3.18V7.158h-0.695c-1.281,0-1.92-0.528-1.92-1.584
		c0-1.04,0.639-1.56,1.92-1.56h0.695v-1.56c0-0.608,0.191-1.092,0.576-1.452c0.385-0.36,0.904-0.54,1.561-0.54
		s1.176,0.18,1.559,0.54c0.385,0.36,0.576,0.844,0.576,1.452v1.56h1.32c1.281,0,1.92,0.52,1.92,1.56c0,1.056-0.639,1.584-1.92,1.584
		h-1.32v4.608c0,0.304,0.092,0.561,0.277,0.768c0.184,0.208,0.42,0.32,0.707,0.336l0.697,0.048
		C78.542,12.982,79.079,13.462,79.079,14.357z"/>
</g>
</svg>
