<?xml version="1.0" encoding="utf-8"?>
<!-- Generator: Adobe Illustrator 16.0.0, SVG Export Plug-In . SVG Version: 6.00 Build 0)  -->
<!DOCTYPE svg PUBLIC "-//W3C//DTD SVG 1.1//EN" "http://www.w3.org/Graphics/SVG/1.1/DTD/svg11.dtd">
<svg version="1.1" id="Layer_1" xmlns="http://www.w3.org/2000/svg" xmlns:xlink="http://www.w3.org/1999/xlink" x="0px" y="0px"
	 width="97.262px" height="27.829px" viewBox="0 0 97.262 27.829" enable-background="new 0 0 97.262 27.829" xml:space="preserve">
<g>
	<path fill="#2D3038" d="M21.375,1.257c0.48,0.5,0.72,1.15,0.72,1.95v16.32c0,0.761-0.22,1.36-0.66,1.8
		c-0.44,0.439-1.02,0.66-1.74,0.66c-0.7,0-1.275-0.221-1.725-0.66c-0.45-0.439-0.675-1.039-0.675-1.8v-8.82l-3.42,6.3
		c-0.34,0.64-0.7,1.095-1.08,1.365c-0.38,0.27-0.83,0.405-1.35,0.405s-0.97-0.136-1.35-0.405c-0.38-0.27-0.74-0.725-1.08-1.365
		l-3.39-6.12v8.64c0,0.739-0.225,1.335-0.675,1.784c-0.45,0.451-1.035,0.676-1.755,0.676c-0.7,0-1.275-0.221-1.725-0.66
		c-0.45-0.439-0.675-1.039-0.675-1.8V3.207c0-0.8,0.245-1.45,0.735-1.95s1.115-0.75,1.875-0.75c0.54,0,1.03,0.155,1.47,0.465
		c0.439,0.31,0.81,0.755,1.11,1.335l5.52,10.38l5.49-10.38c0.62-1.2,1.459-1.8,2.52-1.8C20.274,0.507,20.895,0.757,21.375,1.257z"/>
	<path fill="#2D3038" d="M36.404,7.137c0.379-0.24,0.8-0.36,1.26-0.36c0.66,0,1.25,0.22,1.77,0.66c0.52,0.44,0.78,0.97,0.78,1.59
		c0,0.34-0.08,0.67-0.24,0.99l-7.95,15.93c-0.24,0.499-0.555,0.87-0.945,1.11c-0.39,0.24-0.815,0.359-1.275,0.359
		c-0.66,0-1.245-0.215-1.755-0.645c-0.51-0.431-0.765-0.955-0.765-1.575c0-0.341,0.09-0.69,0.27-1.05l1.95-3.93l-5.1-10.201
		c-0.16-0.36-0.24-0.68-0.24-0.96c0-0.64,0.28-1.185,0.84-1.635c0.56-0.45,1.189-0.675,1.89-0.675c0.48,0,0.925,0.125,1.335,0.375
		c0.41,0.25,0.725,0.625,0.945,1.125l3.18,6.9l3.15-6.9C35.724,7.747,36.024,7.376,36.404,7.137z"/>
	<path fill="#2D3038" d="M53.083,19.977c0,0.699-0.27,1.22-0.81,1.56s-1.311,0.479-2.311,0.42l-0.84-0.06
		c-1.8-0.141-3.165-0.686-4.095-1.635c-0.93-0.95-1.396-2.275-1.396-3.976v-5.31h-0.869c-1.601,0-2.4-0.66-2.4-1.98
		c0-1.3,0.8-1.95,2.4-1.95h0.869v-1.95c0-0.76,0.24-1.365,0.721-1.815c0.479-0.45,1.129-0.675,1.949-0.675s1.471,0.225,1.95,0.675
		c0.48,0.45,0.721,1.055,0.721,1.815v1.95h1.649c1.6,0,2.4,0.65,2.4,1.95c0,1.32-0.801,1.98-2.4,1.98h-1.649v5.76
		c0,0.38,0.114,0.7,0.345,0.96c0.229,0.26,0.524,0.4,0.885,0.42l0.87,0.06C52.414,18.257,53.083,18.857,53.083,19.977z"/>
	<path fill="#2D3038" d="M65.608,7.137c0.391-0.24,0.815-0.36,1.275-0.36c0.66,0,1.245,0.22,1.755,0.66
		c0.51,0.44,0.765,0.97,0.765,1.59c0,0.34-0.08,0.67-0.239,0.99l-5.25,10.44c-0.24,0.501-0.585,0.886-1.035,1.155
		s-0.945,0.404-1.485,0.404s-1.04-0.135-1.5-0.404s-0.81-0.654-1.05-1.155l-5.25-10.44c-0.16-0.36-0.24-0.68-0.24-0.96
		c0-0.64,0.274-1.185,0.825-1.635c0.55-0.45,1.185-0.675,1.905-0.675c0.479,0,0.925,0.125,1.335,0.375
		c0.409,0.25,0.725,0.625,0.944,1.125l3.181,6.87l3.149-6.87C64.913,7.747,65.218,7.376,65.608,7.137z"/>
	<path fill="#2D3038" d="M83.848,17.606c0.29,0.36,0.436,0.831,0.436,1.41c0,0.801-0.39,1.41-1.17,1.83
		c-0.681,0.341-1.485,0.626-2.415,0.855s-1.785,0.346-2.565,0.346c-1.64,0-3.07-0.311-4.29-0.931s-2.16-1.51-2.819-2.67
		c-0.66-1.16-0.99-2.52-0.99-4.08c0-1.48,0.314-2.805,0.945-3.975c0.63-1.17,1.51-2.08,2.64-2.73c1.13-0.65,2.404-0.975,3.825-0.975
		c1.38,0,2.59,0.3,3.63,0.9c1.039,0.6,1.845,1.451,2.415,2.55c0.569,1.1,0.854,2.39,0.854,3.87c0,0.46-0.104,0.815-0.314,1.065
		s-0.516,0.375-0.915,0.375h-7.92c0.14,0.96,0.45,1.65,0.93,2.07c0.48,0.42,1.189,0.63,2.13,0.63c0.5,0,0.96-0.055,1.38-0.165
		c0.42-0.109,0.89-0.265,1.41-0.465c0.3-0.12,0.595-0.225,0.885-0.315s0.556-0.135,0.795-0.135
		C83.183,17.066,83.558,17.247,83.848,17.606z M75.914,10.961c-0.42,0.45-0.67,1.105-0.75,1.965h4.71
		c-0.12-1.76-0.88-2.64-2.28-2.64C76.893,10.287,76.333,10.512,75.914,10.961z"/>
	<path fill="#2D3038" d="M97.153,19.977c0,0.699-0.27,1.22-0.81,1.56s-1.311,0.479-2.311,0.42l-0.84-0.06
		c-1.8-0.141-3.165-0.686-4.095-1.635c-0.93-0.95-1.396-2.275-1.396-3.976v-5.31h-0.869c-1.601,0-2.4-0.66-2.4-1.98
		c0-1.3,0.8-1.95,2.4-1.95h0.869v-1.95c0-0.76,0.24-1.365,0.721-1.815c0.479-0.45,1.129-0.675,1.949-0.675s1.471,0.225,1.95,0.675
		c0.48,0.45,0.721,1.055,0.721,1.815v1.95h1.649c1.6,0,2.4,0.65,2.4,1.95c0,1.32-0.801,1.98-2.4,1.98h-1.649v5.76
		c0,0.38,0.114,0.7,0.345,0.96c0.229,0.26,0.524,0.4,0.885,0.42l0.87,0.06C96.483,18.257,97.153,18.857,97.153,19.977z"/>
</g>
</svg>
