<?xml version="1.0" encoding="utf-8"?>
<!-- Generator: Adobe Illustrator 16.0.0, SVG Export Plug-In . SVG Version: 6.00 Build 0)  -->
<!DOCTYPE svg PUBLIC "-//W3C//DTD SVG 1.1//EN" "http://www.w3.org/Graphics/SVG/1.1/DTD/svg11.dtd">
<svg version="1.1" id="Layer_1" xmlns="http://www.w3.org/2000/svg" xmlns:xlink="http://www.w3.org/1999/xlink" x="0px" y="0px"
	 width="112.591px" height="22.901px" viewBox="0 0 112.591 22.901" enable-background="new 0 0 112.591 22.901"
	 xml:space="preserve">
<g>
	<path fill="#FFFFFF" d="M6.694,19.971c-0.408-0.392-0.612-0.916-0.612-1.572V7.094H2.698c-0.704,0-1.228-0.147-1.572-0.444
		C0.782,6.354,0.61,5.903,0.61,5.294c0-0.608,0.172-1.056,0.516-1.344C1.47,3.663,1.994,3.519,2.698,3.519h11.232
		c0.704,0,1.228,0.144,1.572,0.432c0.344,0.288,0.516,0.736,0.516,1.344c0,0.608-0.172,1.06-0.516,1.356
		c-0.344,0.296-0.868,0.444-1.572,0.444h-3.384v11.304c0,0.656-0.204,1.181-0.612,1.572c-0.408,0.392-0.948,0.588-1.62,0.588
		S7.103,20.362,6.694,19.971z"/>
	<path fill="#FFFFFF" d="M30.802,3.687c0.32-0.192,0.672-0.288,1.056-0.288c0.576,0,1.096,0.184,1.56,0.552
		c0.464,0.368,0.696,0.832,0.696,1.392c0,0.272-0.072,0.552-0.216,0.84l-6.336,13.08c-0.208,0.432-0.52,0.764-0.936,0.996
		c-0.417,0.231-0.864,0.348-1.344,0.348s-0.928-0.116-1.344-0.348c-0.417-0.232-0.729-0.564-0.936-0.996l-6.336-13.08
		c-0.128-0.256-0.192-0.536-0.192-0.84c0-0.543,0.24-1.004,0.72-1.38c0.48-0.375,1.016-0.564,1.608-0.564
		c0.384,0,0.74,0.096,1.068,0.288c0.328,0.192,0.58,0.48,0.756,0.864l4.728,10.224L30.058,4.55
		C30.234,4.167,30.481,3.878,30.802,3.687z"/>
	<path fill="#FFFFFF" d="M36.274,19.911c-0.352-0.353-0.528-0.856-0.528-1.513V5.559c0-0.656,0.176-1.16,0.528-1.512
		c0.352-0.352,0.856-0.528,1.512-0.528h8.303c0.688,0,1.209,0.144,1.561,0.432c0.352,0.288,0.527,0.704,0.527,1.248
		c0,1.152-0.695,1.728-2.088,1.728h-6.047v3.216h5.569c1.391,0,2.088,0.568,2.088,1.704c0,0.544-0.178,0.96-0.529,1.248
		c-0.352,0.288-0.871,0.432-1.559,0.432h-5.569v3.504h6.047c1.393,0,2.088,0.576,2.088,1.729c0,0.544-0.176,0.959-0.527,1.248
		c-0.352,0.287-0.873,0.432-1.561,0.432h-8.303C37.13,20.438,36.625,20.263,36.274,19.911z"/>
	<path fill="#FFFFFF" d="M54.885,19.971c-0.408-0.392-0.612-0.916-0.612-1.572V7.094h-3.384c-0.704,0-1.228-0.147-1.571-0.444
		c-0.345-0.296-0.517-0.748-0.517-1.356c0-0.608,0.172-1.056,0.517-1.344c0.344-0.288,0.867-0.432,1.571-0.432h11.232
		c0.704,0,1.228,0.144,1.572,0.432c0.344,0.288,0.516,0.736,0.516,1.344c0,0.608-0.172,1.06-0.516,1.356
		c-0.345,0.296-0.868,0.444-1.572,0.444h-3.384v11.304c0,0.656-0.204,1.181-0.612,1.572s-0.948,0.588-1.62,0.588
		S55.293,20.362,54.885,19.971z"/>
	<path fill="#387ABE" d="M66.154,19.911c-0.353-0.353-0.528-0.856-0.528-1.513V5.559c0-0.656,0.176-1.16,0.528-1.512
		c0.352-0.352,0.855-0.528,1.512-0.528h8.304c0.688,0,1.208,0.144,1.561,0.432c0.352,0.288,0.527,0.704,0.527,1.248
		c0,1.152-0.695,1.728-2.088,1.728h-6.048v3.216h5.568c1.392,0,2.088,0.568,2.088,1.704c0,0.544-0.177,0.96-0.528,1.248
		c-0.353,0.288-0.872,0.432-1.56,0.432h-5.568v3.504h6.048c1.393,0,2.088,0.576,2.088,1.729c0,0.544-0.176,0.959-0.527,1.248
		c-0.353,0.287-0.873,0.432-1.561,0.432h-8.304C67.009,20.438,66.505,20.263,66.154,19.911z"/>
	<path fill="#387ABE" d="M82.509,20.234c-1.096-0.28-1.996-0.668-2.7-1.164c-0.272-0.208-0.468-0.424-0.588-0.647
		c-0.12-0.225-0.18-0.512-0.18-0.864c0-0.479,0.144-0.896,0.432-1.248c0.288-0.352,0.624-0.528,1.008-0.528
		c0.208,0,0.408,0.032,0.601,0.096c0.191,0.064,0.432,0.184,0.72,0.36c0.656,0.368,1.308,0.632,1.956,0.792
		c0.647,0.16,1.38,0.24,2.196,0.24c0.943,0,1.659-0.141,2.147-0.42s0.732-0.692,0.732-1.236c0-0.368-0.229-0.684-0.685-0.948
		s-1.324-0.524-2.604-0.78c-1.584-0.336-2.824-0.736-3.72-1.2c-0.896-0.464-1.524-1.012-1.885-1.644
		c-0.359-0.632-0.54-1.396-0.54-2.292c0-1.024,0.304-1.952,0.912-2.784c0.608-0.832,1.444-1.484,2.508-1.956
		c1.064-0.472,2.26-0.708,3.589-0.708c1.167,0,2.208,0.128,3.119,0.384c0.912,0.256,1.744,0.656,2.496,1.2
		c0.288,0.208,0.492,0.428,0.612,0.66c0.12,0.232,0.18,0.516,0.18,0.852c0,0.48-0.14,0.896-0.42,1.248
		c-0.28,0.352-0.611,0.528-0.996,0.528c-0.208,0-0.399-0.028-0.575-0.084c-0.177-0.056-0.425-0.18-0.744-0.372
		c-0.08-0.048-0.309-0.171-0.685-0.372s-0.815-0.36-1.319-0.48c-0.504-0.12-1.053-0.18-1.645-0.18c-0.815,0-1.472,0.156-1.968,0.468
		s-0.744,0.724-0.744,1.236c0,0.304,0.088,0.552,0.264,0.744c0.176,0.192,0.504,0.38,0.984,0.564
		c0.48,0.185,1.191,0.372,2.136,0.564c1.536,0.336,2.744,0.74,3.624,1.212c0.88,0.472,1.504,1.02,1.872,1.644
		s0.552,1.36,0.552,2.208c0,1.056-0.296,1.989-0.888,2.795c-0.592,0.809-1.42,1.433-2.484,1.873c-1.063,0.439-2.3,0.659-3.707,0.659
		C84.793,20.654,83.605,20.515,82.509,20.234z"/>
	<path fill="#387ABE" d="M111.777,18.614c0,0.528-0.212,0.977-0.636,1.344c-0.425,0.369-0.908,0.553-1.452,0.553
		c-0.368,0-0.704-0.096-1.008-0.288c-0.305-0.192-0.545-0.479-0.721-0.864l-1.08-2.424h-7.775L98,19.358
		c-0.176,0.385-0.42,0.672-0.731,0.864c-0.313,0.192-0.652,0.288-1.021,0.288c-0.544,0-1.036-0.184-1.476-0.553
		c-0.44-0.367-0.66-0.815-0.66-1.344c0-0.287,0.072-0.584,0.216-0.888l6.336-13.008c0.208-0.432,0.517-0.764,0.924-0.996
		c0.408-0.232,0.86-0.348,1.356-0.348c0.479,0,0.928,0.116,1.344,0.348s0.728,0.564,0.937,0.996l6.336,13.008
		C111.705,18.03,111.777,18.327,111.777,18.614z M100.592,13.623h4.801l-2.4-5.352L100.592,13.623z"/>
</g>
</svg>
