<?xml version="1.0" encoding="utf-8"?>
<!-- Generator: Adobe Illustrator 16.0.0, SVG Export Plug-In . SVG Version: 6.00 Build 0)  -->
<!DOCTYPE svg PUBLIC "-//W3C//DTD SVG 1.1//EN" "http://www.w3.org/Graphics/SVG/1.1/DTD/svg11.dtd">
<svg version="1.1" id="Layer_1" xmlns="http://www.w3.org/2000/svg" xmlns:xlink="http://www.w3.org/1999/xlink" x="0px" y="0px"
	 width="100.274px" height="22.901px" viewBox="0 0 100.274 22.901" enable-background="new 0 0 100.274 22.901"
	 xml:space="preserve">
<g>
	<path fill="#FFFFFF" d="M7.598,20.53c-0.476-0.457-0.714-1.068-0.714-1.834V5.508H2.936c-0.821,0-1.433-0.172-1.834-0.518
		C0.7,4.645,0.5,4.118,0.5,3.408C0.5,2.699,0.7,2.176,1.102,1.84s1.013-0.504,1.834-0.504H16.04c0.821,0,1.433,0.168,1.834,0.504
		s0.602,0.859,0.602,1.568c0,0.709-0.201,1.237-0.602,1.582c-0.401,0.346-1.013,0.518-1.834,0.518h-3.948v13.188
		c0,0.766-0.238,1.377-0.714,1.834c-0.476,0.457-1.106,0.686-1.89,0.686C8.704,21.216,8.074,20.987,7.598,20.53z"/>
	<path fill="#FFFFFF" d="M27.562,7.384c0.364-0.224,0.76-0.336,1.19-0.336c0.616,0,1.162,0.206,1.638,0.616
		c0.476,0.411,0.714,0.906,0.714,1.484c0,0.318-0.075,0.626-0.224,0.924l-4.9,9.744c-0.224,0.467-0.546,0.825-0.966,1.077
		s-0.882,0.379-1.386,0.379s-0.971-0.127-1.4-0.379c-0.43-0.252-0.756-0.61-0.98-1.077l-4.9-9.744
		c-0.15-0.336-0.224-0.634-0.224-0.896c0-0.597,0.256-1.106,0.77-1.526C17.407,7.23,18,7.02,18.671,7.02
		c0.448,0,0.863,0.117,1.246,0.35c0.382,0.234,0.676,0.583,0.882,1.05l2.968,6.412l2.94-6.412
		C26.913,7.954,27.198,7.608,27.562,7.384z"/>
	<path fill="#FFFFFF" d="M44.586,17.156c0.27,0.336,0.406,0.774,0.406,1.315c0,0.747-0.365,1.316-1.094,1.709
		c-0.634,0.316-1.385,0.583-2.253,0.797c-0.868,0.215-1.666,0.322-2.394,0.322c-1.531,0-2.866-0.289-4.004-0.867
		c-1.139-0.578-2.016-1.41-2.632-2.492c-0.616-1.082-0.924-2.352-0.924-3.808c0-1.381,0.294-2.618,0.882-3.71
		c0.588-1.092,1.409-1.941,2.464-2.548c1.054-0.606,2.244-0.91,3.57-0.91c1.288,0,2.417,0.28,3.388,0.84
		c0.97,0.56,1.721,1.354,2.254,2.38c0.531,1.027,0.797,2.231,0.797,3.612c0,0.429-0.098,0.761-0.293,0.994
		c-0.197,0.234-0.48,0.35-0.855,0.35h-7.391c0.13,0.896,0.42,1.541,0.868,1.932c0.448,0.392,1.11,0.588,1.988,0.588
		c0.466,0,0.896-0.052,1.288-0.153c0.392-0.104,0.831-0.248,1.316-0.435c0.28-0.112,0.555-0.21,0.826-0.294
		c0.271-0.084,0.518-0.126,0.742-0.126C43.965,16.652,44.315,16.82,44.586,17.156z M37.18,10.954c-0.392,0.42-0.625,1.032-0.7,1.834
		h4.396c-0.112-1.642-0.822-2.464-2.128-2.464C38.094,10.324,37.572,10.534,37.18,10.954z"/>
	<path fill="#FFFFFF" d="M57.004,19.368c0,0.654-0.253,1.139-0.757,1.456s-1.223,0.448-2.155,0.392l-0.784-0.056
		c-1.681-0.13-2.954-0.64-3.822-1.526s-1.302-2.123-1.302-3.709v-4.956h-0.813c-1.493,0-2.239-0.616-2.239-1.848
		c0-1.213,0.746-1.82,2.239-1.82h0.813V5.48c0-0.709,0.224-1.274,0.672-1.694s1.055-0.63,1.82-0.63c0.765,0,1.372,0.21,1.819,0.63
		c0.448,0.42,0.672,0.985,0.672,1.694V7.3h1.54c1.493,0,2.24,0.607,2.24,1.82c0,1.232-0.747,1.848-2.24,1.848h-1.54v5.376
		c0,0.355,0.107,0.653,0.322,0.896s0.49,0.374,0.826,0.392l0.812,0.057C56.378,17.763,57.004,18.323,57.004,19.368z"/>
	<path fill="#FFFFFF" d="M70.57,17.156c0.271,0.336,0.406,0.774,0.406,1.315c0,0.747-0.364,1.316-1.093,1.709
		c-0.635,0.316-1.386,0.583-2.254,0.797c-0.867,0.215-1.666,0.322-2.394,0.322c-1.531,0-2.865-0.289-4.004-0.867
		s-2.017-1.41-2.632-2.492c-0.616-1.082-0.925-2.352-0.925-3.808c0-1.381,0.295-2.618,0.883-3.71
		c0.588-1.092,1.409-1.941,2.464-2.548c1.054-0.606,2.244-0.91,3.569-0.91c1.288,0,2.418,0.28,3.389,0.84
		c0.97,0.56,1.722,1.354,2.254,2.38c0.532,1.027,0.798,2.231,0.798,3.612c0,0.429-0.098,0.761-0.294,0.994
		c-0.196,0.234-0.48,0.35-0.854,0.35h-7.392c0.131,0.896,0.42,1.541,0.868,1.932s1.11,0.588,1.988,0.588
		c0.466,0,0.896-0.052,1.288-0.153c0.392-0.104,0.83-0.248,1.315-0.435c0.28-0.112,0.556-0.21,0.826-0.294s0.518-0.126,0.742-0.126
		C69.949,16.652,70.299,16.82,70.57,17.156z M63.164,10.954c-0.392,0.42-0.625,1.032-0.7,1.834h4.396
		c-0.112-1.642-0.821-2.464-2.128-2.464C64.079,10.324,63.556,10.534,63.164,10.954z"/>
	<path fill="#FFFFFF" d="M75.567,21.021c-0.858-0.187-1.614-0.485-2.268-0.896c-0.262-0.131-0.467-0.354-0.616-0.672
		c-0.149-0.317-0.224-0.672-0.224-1.064c0-0.504,0.135-0.919,0.406-1.246c0.27-0.326,0.61-0.489,1.021-0.489
		c0.28,0,0.541,0.032,0.784,0.098c0.242,0.065,0.541,0.173,0.896,0.322c0.598,0.206,1.125,0.364,1.582,0.476
		c0.458,0.112,1.041,0.168,1.75,0.168c0.504,0,0.9-0.07,1.19-0.209c0.289-0.141,0.434-0.341,0.434-0.603
		c0-0.205-0.069-0.364-0.21-0.476c-0.14-0.112-0.405-0.219-0.798-0.322c-0.392-0.102-1.055-0.247-1.988-0.434
		c-1.661-0.317-2.86-0.798-3.598-1.442s-1.105-1.554-1.105-2.73c0-0.858,0.266-1.633,0.798-2.324
		c0.531-0.69,1.264-1.232,2.197-1.624s1.979-0.588,3.137-0.588c0.84,0,1.656,0.103,2.449,0.308c0.794,0.206,1.498,0.495,2.114,0.868
		c0.578,0.336,0.868,0.877,0.868,1.624c0,0.523-0.14,0.961-0.42,1.316c-0.28,0.355-0.626,0.532-1.036,0.532
		c-0.485,0-1.063-0.159-1.736-0.476c-0.447-0.205-0.845-0.359-1.189-0.462c-0.346-0.103-0.752-0.154-1.218-0.154
		c-0.467,0-0.831,0.07-1.093,0.21c-0.261,0.14-0.392,0.341-0.392,0.602c0,0.299,0.182,0.532,0.546,0.7s1.087,0.355,2.17,0.56
		c1.811,0.317,3.09,0.798,3.836,1.442c0.747,0.644,1.12,1.573,1.12,2.786c0,1.362-0.564,2.45-1.693,3.262
		c-1.13,0.812-2.646,1.218-4.551,1.218C77.48,21.3,76.425,21.206,75.567,21.021z"/>
	<path fill="#FFFFFF" d="M98.149,8.49c1.018,1.018,1.526,2.562,1.526,4.634v5.852c0,0.711-0.21,1.266-0.63,1.666
		c-0.421,0.402-1.004,0.603-1.75,0.603c-0.654,0-1.19-0.187-1.61-0.56s-0.648-0.877-0.687-1.512
		c-0.261,0.672-0.699,1.194-1.315,1.567s-1.354,0.56-2.212,0.56c-0.952,0-1.811-0.191-2.576-0.574
		c-0.766-0.382-1.367-0.914-1.806-1.596c-0.439-0.681-0.658-1.451-0.658-2.31c0-0.989,0.256-1.778,0.77-2.366s1.33-1.012,2.45-1.274
		c1.12-0.261,2.632-0.392,4.536-0.392h0.756v-0.336c0-0.653-0.149-1.125-0.448-1.414c-0.299-0.289-0.803-0.434-1.512-0.434
		c-0.766,0-1.886,0.262-3.36,0.784c-0.429,0.149-0.793,0.224-1.092,0.224c-0.467,0-0.84-0.168-1.12-0.504
		c-0.279-0.336-0.42-0.774-0.42-1.316c0-0.41,0.084-0.746,0.252-1.008c0.168-0.261,0.438-0.494,0.813-0.7
		c0.653-0.336,1.475-0.606,2.464-0.812c0.989-0.205,1.96-0.308,2.912-0.308C95.559,6.964,97.131,7.473,98.149,8.49z M94.299,17.255
		c0.429-0.477,0.644-1.088,0.644-1.834v-0.336h-0.448c-1.194,0-2.044,0.108-2.548,0.322c-0.504,0.215-0.756,0.574-0.756,1.078
		c0,0.429,0.136,0.784,0.406,1.063c0.271,0.28,0.62,0.42,1.05,0.42C93.319,17.968,93.87,17.729,94.299,17.255z"/>
</g>
</svg>
