<?xml version="1.0" encoding="utf-8"?>
<!-- Generator: Adobe Illustrator 16.0.0, SVG Export Plug-In . SVG Version: 6.00 Build 0)  -->
<!DOCTYPE svg PUBLIC "-//W3C//DTD SVG 1.1//EN" "http://www.w3.org/Graphics/SVG/1.1/DTD/svg11.dtd">
<svg version="1.1" id="Layer_1" xmlns="http://www.w3.org/2000/svg" xmlns:xlink="http://www.w3.org/1999/xlink" x="0px" y="0px"
	 width="78.01px" height="22.263px" viewBox="0 0 78.01 22.263" enable-background="new 0 0 78.01 22.263" xml:space="preserve">
<g>
	<path fill="#FFFFFF" d="M16.862,1.079c0.384,0.4,0.576,0.92,0.576,1.56v13.056c0,0.607-0.176,1.088-0.528,1.439
		c-0.353,0.353-0.816,0.528-1.392,0.528c-0.561,0-1.02-0.176-1.38-0.528c-0.36-0.352-0.54-0.832-0.54-1.439V8.639l-2.736,5.04
		c-0.272,0.512-0.56,0.875-0.864,1.092c-0.304,0.215-0.664,0.324-1.08,0.324s-0.776-0.109-1.08-0.324
		c-0.304-0.217-0.592-0.58-0.864-1.092L4.263,8.783v6.912c0,0.592-0.18,1.068-0.54,1.428c-0.36,0.359-0.828,0.54-1.404,0.54
		c-0.56,0-1.02-0.176-1.38-0.528c-0.36-0.352-0.54-0.832-0.54-1.439V2.639c0-0.64,0.196-1.16,0.588-1.56s0.892-0.6,1.5-0.6
		c0.432,0,0.824,0.124,1.176,0.372C4.014,1.099,4.311,1.455,4.55,1.918l4.416,8.304l4.392-8.304c0.496-0.96,1.168-1.44,2.016-1.44
		C15.982,0.479,16.479,0.679,16.862,1.079z"/>
	<path fill="#FFFFFF" d="M28.886,5.783c0.304-0.192,0.64-0.288,1.008-0.288c0.528,0,1,0.176,1.416,0.528
		c0.416,0.352,0.624,0.776,0.624,1.272c0,0.272-0.064,0.536-0.192,0.792l-6.36,12.744c-0.192,0.399-0.444,0.696-0.756,0.888
		c-0.312,0.192-0.652,0.288-1.02,0.288c-0.528,0-0.996-0.172-1.404-0.516c-0.408-0.345-0.612-0.765-0.612-1.261
		c0-0.271,0.072-0.551,0.216-0.84l1.56-3.144l-4.08-8.16c-0.128-0.288-0.192-0.543-0.192-0.768c0-0.512,0.224-0.948,0.672-1.308
		c0.448-0.36,0.952-0.54,1.512-0.54c0.384,0,0.74,0.1,1.068,0.3c0.328,0.2,0.58,0.5,0.756,0.9l2.544,5.52l2.52-5.52
		C28.342,6.271,28.583,5.975,28.886,5.783z"/>
	<path fill="#FFFFFF" d="M42.23,16.054c0,0.561-0.217,0.977-0.648,1.248c-0.432,0.271-1.048,0.385-1.848,0.336l-0.672-0.048
		c-1.44-0.111-2.532-0.548-3.276-1.308s-1.116-1.82-1.116-3.18V8.854h-0.696c-1.28,0-1.92-0.528-1.92-1.584
		c0-1.04,0.64-1.56,1.92-1.56h0.696V4.15c0-0.608,0.192-1.092,0.576-1.452c0.384-0.36,0.904-0.54,1.56-0.54
		c0.656,0,1.176,0.18,1.56,0.54c0.384,0.36,0.576,0.844,0.576,1.452v1.56h1.32c1.28,0,1.919,0.52,1.919,1.56
		c0,1.056-0.64,1.584-1.919,1.584h-1.32v4.608c0,0.304,0.092,0.561,0.276,0.768c0.184,0.208,0.42,0.32,0.708,0.335l0.696,0.049
		C41.693,14.679,42.23,15.159,42.23,16.054z"/>
	<path fill="#FFFFFF" d="M52.25,5.783c0.313-0.192,0.651-0.288,1.021-0.288c0.527,0,0.995,0.176,1.403,0.528
		c0.408,0.352,0.612,0.776,0.612,1.272c0,0.272-0.064,0.536-0.192,0.792l-4.2,8.353c-0.191,0.4-0.468,0.707-0.827,0.924
		c-0.36,0.216-0.757,0.324-1.188,0.324s-0.832-0.108-1.2-0.324c-0.368-0.217-0.647-0.523-0.84-0.924l-4.2-8.353
		c-0.128-0.288-0.191-0.543-0.191-0.768c0-0.512,0.22-0.948,0.66-1.308c0.439-0.36,0.947-0.54,1.523-0.54
		c0.384,0,0.74,0.1,1.068,0.3c0.327,0.2,0.579,0.5,0.756,0.9l2.544,5.496l2.52-5.496C51.694,6.271,51.938,5.975,52.25,5.783z"/>
	<path fill="#FFFFFF" d="M66.841,14.159c0.231,0.288,0.348,0.664,0.348,1.128c0,0.641-0.312,1.128-0.936,1.464
		c-0.544,0.272-1.188,0.501-1.933,0.685c-0.743,0.184-1.428,0.275-2.052,0.275c-1.312,0-2.456-0.248-3.432-0.744
		c-0.977-0.496-1.729-1.207-2.256-2.136c-0.528-0.928-0.792-2.016-0.792-3.264c0-1.184,0.252-2.244,0.756-3.18
		s1.208-1.664,2.112-2.184c0.903-0.52,1.923-0.78,3.06-0.78c1.104,0,2.072,0.24,2.904,0.72c0.831,0.48,1.476,1.16,1.932,2.04
		s0.684,1.912,0.684,3.096c0,0.369-0.084,0.652-0.252,0.852c-0.168,0.2-0.412,0.3-0.731,0.3h-6.336
		c0.111,0.768,0.359,1.32,0.744,1.656c0.384,0.336,0.951,0.504,1.704,0.504c0.399,0,0.768-0.044,1.104-0.132
		s0.712-0.212,1.128-0.372c0.24-0.096,0.476-0.18,0.708-0.252c0.231-0.072,0.444-0.108,0.636-0.108
		C66.309,13.727,66.609,13.871,66.841,14.159z M60.494,8.843c-0.336,0.36-0.537,0.884-0.601,1.572h3.769
		c-0.097-1.408-0.705-2.112-1.824-2.112C61.277,8.303,60.83,8.482,60.494,8.843z"/>
	<path fill="#FFFFFF" d="M77.485,16.054c0,0.561-0.216,0.977-0.647,1.248c-0.433,0.271-1.049,0.385-1.849,0.336l-0.672-0.048
		c-1.439-0.111-2.532-0.548-3.275-1.308c-0.744-0.76-1.116-1.82-1.116-3.18V8.854h-0.696c-1.28,0-1.92-0.528-1.92-1.584
		c0-1.04,0.64-1.56,1.92-1.56h0.696V4.15c0-0.608,0.191-1.092,0.576-1.452c0.384-0.36,0.903-0.54,1.56-0.54s1.176,0.18,1.56,0.54
		c0.385,0.36,0.576,0.844,0.576,1.452v1.56h1.32c1.28,0,1.92,0.52,1.92,1.56c0,1.056-0.64,1.584-1.92,1.584h-1.32v4.608
		c0,0.304,0.092,0.561,0.276,0.768c0.184,0.208,0.42,0.32,0.708,0.335l0.696,0.049C76.949,14.679,77.485,15.159,77.485,16.054z"/>
</g>
</svg>
