<?xml version="1.0" encoding="utf-8"?>
<!-- Generator: Adobe Illustrator 16.0.0, SVG Export Plug-In . SVG Version: 6.00 Build 0)  -->
<!DOCTYPE svg PUBLIC "-//W3C//DTD SVG 1.1//EN" "http://www.w3.org/Graphics/SVG/1.1/DTD/svg11.dtd">
<svg version="1.1" id="Layer_1" xmlns="http://www.w3.org/2000/svg" xmlns:xlink="http://www.w3.org/1999/xlink" x="0px" y="0px"
	 width="112.591px" height="22.901px" viewBox="0 0 112.591 22.901" enable-background="new 0 0 112.591 22.901"
	 xml:space="preserve">
<g>
	<path fill="#FFFFFF" d="M6.694,19.971c-0.408-0.392-0.612-0.916-0.612-1.572V7.094H2.698c-0.704,0-1.228-0.147-1.572-0.444
		C0.782,6.354,0.61,5.903,0.61,5.294c0-0.608,0.172-1.056,0.516-1.344C1.47,3.663,1.994,3.519,2.698,3.519h11.232
		c0.704,0,1.228,0.144,1.572,0.432c0.344,0.288,0.516,0.736,0.516,1.344c0,0.608-0.172,1.06-0.516,1.356
		c-0.344,0.296-0.868,0.444-1.572,0.444h-3.384v11.304c0,0.656-0.204,1.181-0.612,1.572c-0.408,0.392-0.948,0.588-1.62,0.588
		S7.103,20.362,6.694,19.971z"/>
	<path fill="#FFFFFF" d="M23.807,8.703c0.312-0.192,0.652-0.288,1.02-0.288c0.528,0,0.996,0.176,1.404,0.528
		c0.408,0.352,0.612,0.776,0.612,1.272c0,0.272-0.064,0.536-0.192,0.792l-4.2,8.352c-0.192,0.4-0.468,0.708-0.828,0.924
		c-0.36,0.217-0.756,0.324-1.188,0.324s-0.832-0.107-1.2-0.324c-0.369-0.216-0.648-0.523-0.84-0.924l-4.2-8.352
		c-0.128-0.288-0.192-0.543-0.192-0.768c0-0.512,0.22-0.948,0.66-1.308c0.44-0.36,0.948-0.54,1.524-0.54c0.384,0,0.74,0.1,1.068,0.3
		c0.328,0.2,0.58,0.5,0.756,0.9l2.544,5.496l2.52-5.496C23.25,9.191,23.495,8.895,23.807,8.703z"/>
	<path fill="#FFFFFF" d="M38.398,17.079c0.232,0.287,0.348,0.664,0.348,1.127c0,0.641-0.312,1.129-0.936,1.465
		c-0.544,0.271-1.188,0.5-1.932,0.684s-1.428,0.275-2.052,0.275c-1.312,0-2.456-0.247-3.432-0.743
		c-0.976-0.496-1.728-1.208-2.256-2.136c-0.528-0.928-0.792-2.017-0.792-3.265c0-1.184,0.252-2.244,0.756-3.18
		s1.208-1.664,2.112-2.184c0.904-0.52,1.924-0.78,3.06-0.78c1.104,0,2.072,0.24,2.904,0.72s1.476,1.16,1.932,2.04
		s0.684,1.912,0.684,3.096c0,0.369-0.084,0.652-0.252,0.852c-0.168,0.2-0.412,0.3-0.732,0.3h-6.336
		c0.111,0.768,0.36,1.32,0.744,1.656c0.384,0.336,0.952,0.504,1.704,0.504c0.4,0,0.768-0.044,1.104-0.133
		c0.336-0.088,0.712-0.211,1.128-0.371c0.24-0.096,0.476-0.18,0.708-0.252s0.444-0.108,0.636-0.108
		C37.866,16.646,38.167,16.79,38.398,17.079z M32.05,11.763c-0.336,0.36-0.536,0.884-0.6,1.572h3.768
		c-0.096-1.408-0.704-2.112-1.824-2.112C32.834,11.223,32.386,11.402,32.05,11.763z"/>
	<path fill="#FFFFFF" d="M49.042,18.975c0,0.56-0.216,0.976-0.647,1.248c-0.433,0.271-1.049,0.384-1.849,0.336l-0.672-0.048
		c-1.439-0.111-2.532-0.549-3.276-1.309s-1.116-1.819-1.116-3.18v-4.248h-0.696c-1.28,0-1.92-0.528-1.92-1.584
		c0-1.04,0.64-1.56,1.92-1.56h0.696V7.07c0-0.608,0.192-1.092,0.576-1.452c0.384-0.36,0.904-0.54,1.56-0.54s1.176,0.18,1.56,0.54
		c0.385,0.36,0.576,0.844,0.576,1.452v1.56h1.32c1.28,0,1.92,0.52,1.92,1.56c0,1.056-0.64,1.584-1.92,1.584h-1.32v4.608
		c0,0.304,0.092,0.56,0.276,0.768c0.184,0.208,0.42,0.32,0.708,0.336l0.696,0.048C48.506,17.599,49.042,18.079,49.042,18.975z"/>
	<path fill="#FFFFFF" d="M60.67,17.079c0.231,0.287,0.348,0.664,0.348,1.127c0,0.641-0.312,1.129-0.936,1.465
		c-0.544,0.271-1.188,0.5-1.933,0.684c-0.743,0.184-1.428,0.275-2.052,0.275c-1.312,0-2.456-0.247-3.432-0.743
		c-0.977-0.496-1.729-1.208-2.256-2.136c-0.528-0.928-0.792-2.017-0.792-3.265c0-1.184,0.252-2.244,0.756-3.18
		s1.208-1.664,2.112-2.184c0.903-0.52,1.923-0.78,3.06-0.78c1.104,0,2.072,0.24,2.904,0.72c0.831,0.48,1.476,1.16,1.932,2.04
		s0.684,1.912,0.684,3.096c0,0.369-0.084,0.652-0.252,0.852c-0.168,0.2-0.412,0.3-0.731,0.3h-6.336
		c0.111,0.768,0.359,1.32,0.744,1.656c0.384,0.336,0.951,0.504,1.704,0.504c0.399,0,0.768-0.044,1.104-0.133
		c0.336-0.088,0.712-0.211,1.128-0.371c0.24-0.096,0.476-0.18,0.708-0.252c0.231-0.072,0.444-0.108,0.636-0.108
		C60.138,16.646,60.438,16.79,60.67,17.079z M54.323,11.763c-0.336,0.36-0.537,0.884-0.601,1.572h3.769
		c-0.097-1.408-0.705-2.112-1.824-2.112C55.106,11.223,54.659,11.402,54.323,11.763z"/>
	<path fill="#FFFFFF" d="M64.955,20.391c-0.736-0.159-1.385-0.416-1.944-0.769c-0.225-0.111-0.4-0.303-0.528-0.576
		c-0.128-0.271-0.191-0.575-0.191-0.912c0-0.432,0.115-0.787,0.348-1.067c0.231-0.28,0.523-0.42,0.876-0.42
		c0.24,0,0.464,0.028,0.672,0.084s0.464,0.147,0.769,0.276c0.512,0.176,0.963,0.312,1.355,0.408c0.392,0.096,0.892,0.144,1.5,0.144
		c0.433,0,0.771-0.06,1.021-0.181c0.247-0.119,0.372-0.291,0.372-0.516c0-0.176-0.061-0.313-0.181-0.408
		c-0.12-0.096-0.348-0.188-0.684-0.276s-0.904-0.212-1.704-0.372c-1.425-0.272-2.452-0.684-3.084-1.236
		c-0.633-0.552-0.948-1.332-0.948-2.34c0-0.736,0.229-1.4,0.685-1.992c0.456-0.592,1.083-1.056,1.884-1.392
		c0.8-0.336,1.695-0.504,2.688-0.504c0.721,0,1.42,0.088,2.101,0.264c0.68,0.176,1.284,0.424,1.812,0.744
		c0.496,0.288,0.744,0.752,0.744,1.392c0,0.448-0.12,0.824-0.36,1.128c-0.239,0.304-0.536,0.456-0.888,0.456
		c-0.416,0-0.912-0.136-1.488-0.408c-0.384-0.176-0.724-0.308-1.02-0.396c-0.296-0.088-0.645-0.132-1.044-0.132
		c-0.4,0-0.712,0.06-0.937,0.18c-0.224,0.12-0.336,0.292-0.336,0.516c0,0.256,0.156,0.456,0.469,0.6
		c0.312,0.144,0.932,0.304,1.859,0.48c1.552,0.272,2.648,0.684,3.288,1.236c0.64,0.552,0.96,1.348,0.96,2.388
		c0,1.168-0.484,2.101-1.452,2.797c-0.968,0.695-2.268,1.043-3.899,1.043C66.594,20.63,65.69,20.55,64.955,20.391z"/>
	<path fill="#FFFFFF" d="M84.31,9.65c0.872,0.873,1.308,2.196,1.308,3.972v5.016c0,0.608-0.18,1.084-0.54,1.428
		c-0.359,0.345-0.86,0.517-1.5,0.517c-0.56,0-1.02-0.16-1.38-0.48c-0.359-0.32-0.556-0.752-0.588-1.296
		c-0.225,0.575-0.6,1.024-1.128,1.344s-1.16,0.479-1.896,0.479c-0.816,0-1.553-0.164-2.208-0.491
		c-0.656-0.328-1.173-0.784-1.549-1.368s-0.563-1.244-0.563-1.98c0-0.848,0.22-1.523,0.66-2.027c0.439-0.504,1.14-0.868,2.1-1.092
		c0.96-0.224,2.256-0.336,3.888-0.336h0.648v-0.288c0-0.56-0.128-0.964-0.384-1.212c-0.257-0.248-0.688-0.372-1.296-0.372
		c-0.656,0-1.616,0.224-2.88,0.672c-0.369,0.128-0.681,0.192-0.937,0.192c-0.4,0-0.72-0.144-0.96-0.432s-0.36-0.664-0.36-1.128
		c0-0.352,0.072-0.64,0.217-0.864c0.144-0.224,0.375-0.424,0.695-0.6c0.561-0.288,1.264-0.52,2.112-0.696
		c0.848-0.176,1.68-0.264,2.496-0.264C82.09,8.342,83.438,8.779,84.31,9.65z M81.01,17.163c0.367-0.408,0.552-0.933,0.552-1.573
		v-0.288h-0.384c-1.024,0-1.752,0.092-2.185,0.276c-0.432,0.184-0.647,0.492-0.647,0.924c0,0.368,0.115,0.672,0.348,0.913
		c0.231,0.239,0.532,0.359,0.9,0.359C80.17,17.774,80.642,17.57,81.01,17.163z"/>
</g>
</svg>
