<?xml version="1.0" encoding="utf-8"?>
<!-- Generator: Adobe Illustrator 16.0.0, SVG Export Plug-In . SVG Version: 6.00 Build 0)  -->
<!DOCTYPE svg PUBLIC "-//W3C//DTD SVG 1.1//EN" "http://www.w3.org/Graphics/SVG/1.1/DTD/svg11.dtd">
<svg version="1.1" id="Layer_1" xmlns="http://www.w3.org/2000/svg" xmlns:xlink="http://www.w3.org/1999/xlink" x="0px" y="0px"
	 width="102.281px" height="22.901px" viewBox="0 0 102.281 22.901" enable-background="new 0 0 102.281 22.901"
	 xml:space="preserve">
<g>
	<path fill="#FFFFFF" d="M17.135,1.672c0.384,0.4,0.576,0.92,0.576,1.56v13.056c0,0.608-0.176,1.088-0.528,1.44
		c-0.353,0.353-0.816,0.528-1.392,0.528c-0.561,0-1.02-0.176-1.38-0.528c-0.36-0.352-0.54-0.832-0.54-1.44V9.232l-2.736,5.04
		c-0.272,0.512-0.56,0.876-0.864,1.092c-0.304,0.216-0.664,0.324-1.08,0.324s-0.776-0.108-1.08-0.324
		c-0.304-0.216-0.592-0.58-0.864-1.092L4.536,9.376v6.912c0,0.592-0.18,1.069-0.54,1.428c-0.36,0.359-0.828,0.54-1.404,0.54
		c-0.56,0-1.02-0.176-1.38-0.528c-0.36-0.352-0.54-0.832-0.54-1.44V3.232c0-0.64,0.196-1.16,0.588-1.56s0.892-0.6,1.5-0.6
		c0.432,0,0.824,0.124,1.176,0.372c0.352,0.248,0.648,0.604,0.888,1.068l4.416,8.304l4.392-8.304c0.496-0.96,1.168-1.44,2.016-1.44
		C16.255,1.072,16.751,1.272,17.135,1.672z"/>
	<path fill="#FFFFFF" d="M29.159,6.376c0.304-0.192,0.64-0.288,1.008-0.288c0.528,0,1,0.176,1.416,0.528
		C32,6.968,32.208,7.392,32.208,7.888c0,0.272-0.064,0.536-0.192,0.792l-6.36,12.744c-0.192,0.399-0.444,0.696-0.756,0.888
		c-0.312,0.192-0.652,0.288-1.02,0.288c-0.528,0-0.996-0.172-1.404-0.516c-0.408-0.345-0.612-0.765-0.612-1.261
		c0-0.271,0.072-0.551,0.216-0.84l1.56-3.144l-4.08-8.16c-0.128-0.288-0.192-0.543-0.192-0.768c0-0.512,0.224-0.948,0.672-1.308
		c0.448-0.36,0.952-0.54,1.512-0.54c0.384,0,0.74,0.1,1.068,0.3c0.328,0.2,0.58,0.5,0.756,0.9l2.544,5.52l2.52-5.52
		C28.615,6.864,28.855,6.568,29.159,6.376z"/>
	<path fill="#FFFFFF" d="M42.503,16.647c0,0.561-0.217,0.977-0.648,1.248c-0.432,0.271-1.048,0.385-1.848,0.336l-0.672-0.048
		c-1.44-0.111-2.532-0.548-3.276-1.308s-1.116-1.82-1.116-3.18V9.448h-0.696c-1.28,0-1.92-0.528-1.92-1.584
		c0-1.04,0.64-1.56,1.92-1.56h0.696v-1.56c0-0.608,0.192-1.092,0.576-1.452c0.384-0.36,0.904-0.54,1.56-0.54
		c0.656,0,1.176,0.18,1.56,0.54c0.384,0.36,0.576,0.844,0.576,1.452v1.56h1.32c1.28,0,1.919,0.52,1.919,1.56
		c0,1.056-0.64,1.584-1.919,1.584h-1.32v4.608c0,0.304,0.092,0.561,0.276,0.768c0.184,0.208,0.42,0.32,0.708,0.336l0.696,0.048
		C41.966,15.272,42.503,15.752,42.503,16.647z"/>
	<path fill="#FFFFFF" d="M52.522,6.376c0.313-0.192,0.651-0.288,1.021-0.288c0.527,0,0.995,0.176,1.403,0.528
		c0.408,0.352,0.612,0.776,0.612,1.272c0,0.272-0.064,0.536-0.192,0.792l-4.2,8.353c-0.191,0.4-0.468,0.707-0.827,0.924
		c-0.36,0.216-0.757,0.324-1.188,0.324s-0.832-0.108-1.2-0.324c-0.368-0.217-0.647-0.523-0.84-0.924l-4.2-8.353
		c-0.128-0.288-0.191-0.543-0.191-0.768c0-0.512,0.22-0.948,0.66-1.308c0.439-0.36,0.947-0.54,1.523-0.54
		c0.384,0,0.74,0.1,1.068,0.3c0.327,0.2,0.579,0.5,0.756,0.9l2.544,5.496l2.52-5.496C51.967,6.864,52.211,6.568,52.522,6.376z"/>
	<path fill="#FFFFFF" d="M67.114,14.752c0.232,0.288,0.348,0.664,0.348,1.128c0,0.64-0.311,1.128-0.936,1.464
		c-0.543,0.272-1.188,0.501-1.932,0.685c-0.743,0.184-1.428,0.275-2.052,0.275c-1.312,0-2.456-0.248-3.432-0.744
		c-0.977-0.496-1.729-1.208-2.256-2.136c-0.528-0.928-0.792-2.016-0.792-3.264c0-1.184,0.252-2.244,0.756-3.18
		s1.208-1.664,2.112-2.184c0.903-0.52,1.923-0.78,3.06-0.78c1.104,0,2.072,0.24,2.904,0.72c0.831,0.48,1.475,1.16,1.932,2.04
		c0.455,0.88,0.684,1.912,0.684,3.096c0,0.369-0.084,0.652-0.252,0.852c-0.168,0.2-0.412,0.3-0.732,0.3H60.19
		c0.111,0.768,0.359,1.32,0.744,1.656c0.384,0.336,0.951,0.504,1.704,0.504c0.399,0,0.768-0.043,1.104-0.132
		c0.336-0.088,0.712-0.212,1.128-0.372c0.24-0.096,0.476-0.18,0.708-0.252c0.23-0.072,0.443-0.108,0.635-0.108
		C66.583,14.32,66.881,14.464,67.114,14.752z M60.767,9.436c-0.336,0.36-0.537,0.884-0.601,1.572h3.769
		C63.838,9.6,63.229,8.896,62.11,8.896C61.55,8.896,61.103,9.076,60.767,9.436z"/>
	<path fill="#FFFFFF" d="M77.758,16.647c0,0.561-0.217,0.977-0.648,1.248s-1.049,0.385-1.848,0.336l-0.672-0.048
		c-1.439-0.111-2.533-0.548-3.275-1.308c-0.744-0.76-1.117-1.82-1.117-3.18V9.448h-0.695c-1.281,0-1.92-0.528-1.92-1.584
		c0-1.04,0.639-1.56,1.92-1.56h0.695v-1.56c0-0.608,0.191-1.092,0.576-1.452c0.385-0.36,0.904-0.54,1.561-0.54
		s1.176,0.18,1.559,0.54c0.385,0.36,0.576,0.844,0.576,1.452v1.56h1.32c1.281,0,1.92,0.52,1.92,1.56c0,1.056-0.639,1.584-1.92,1.584
		h-1.32v4.608c0,0.304,0.092,0.561,0.277,0.768c0.184,0.208,0.42,0.32,0.707,0.336l0.697,0.048
		C77.221,15.272,77.758,15.752,77.758,16.647z"/>
	<path fill="#FFFFFF" d="M80.831,18.063c-0.736-0.159-1.385-0.416-1.945-0.768c-0.225-0.111-0.4-0.304-0.527-0.576
		c-0.129-0.272-0.191-0.576-0.191-0.912c0-0.432,0.115-0.788,0.348-1.068c0.23-0.28,0.523-0.42,0.875-0.42
		c0.24,0,0.465,0.028,0.672,0.084c0.209,0.056,0.465,0.148,0.77,0.276c0.512,0.176,0.963,0.312,1.355,0.408
		c0.391,0.096,0.891,0.144,1.5,0.144c0.432,0,0.771-0.06,1.02-0.18s0.373-0.292,0.373-0.516c0-0.176-0.061-0.312-0.182-0.408
		c-0.119-0.096-0.348-0.188-0.684-0.276s-0.904-0.212-1.703-0.372c-1.426-0.272-2.453-0.684-3.084-1.236
		c-0.633-0.552-0.949-1.332-0.949-2.34c0-0.736,0.229-1.4,0.686-1.992c0.455-0.592,1.082-1.056,1.883-1.392
		c0.801-0.336,1.695-0.504,2.688-0.504c0.721,0,1.42,0.088,2.102,0.264c0.68,0.176,1.283,0.424,1.811,0.744
		c0.496,0.288,0.744,0.752,0.744,1.392c0,0.448-0.119,0.824-0.359,1.128C87.79,9.848,87.493,10,87.141,10
		c-0.416,0-0.912-0.136-1.488-0.408c-0.383-0.176-0.723-0.308-1.02-0.396c-0.295-0.088-0.645-0.132-1.043-0.132
		c-0.4,0-0.713,0.06-0.938,0.18c-0.223,0.12-0.336,0.292-0.336,0.516c0,0.256,0.156,0.456,0.469,0.6s0.932,0.304,1.859,0.48
		c1.553,0.272,2.648,0.684,3.289,1.236c0.639,0.552,0.959,1.348,0.959,2.388c0,1.168-0.484,2.1-1.451,2.796
		c-0.969,0.696-2.268,1.044-3.9,1.044C82.469,18.304,81.565,18.224,80.831,18.063z"/>
	<path fill="#FFFFFF" d="M100.186,7.324c0.871,0.873,1.307,2.196,1.307,3.972v5.016c0,0.608-0.18,1.083-0.539,1.427
		c-0.359,0.345-0.861,0.517-1.5,0.517c-0.561,0-1.02-0.159-1.381-0.479c-0.359-0.32-0.555-0.752-0.588-1.296
		c-0.225,0.576-0.6,1.024-1.127,1.343c-0.529,0.32-1.16,0.48-1.896,0.48c-0.816,0-1.553-0.164-2.207-0.492
		c-0.656-0.328-1.174-0.783-1.549-1.368c-0.377-0.584-0.564-1.244-0.564-1.98c0-0.848,0.221-1.524,0.66-2.028
		c0.439-0.504,1.141-0.868,2.1-1.092c0.961-0.224,2.256-0.336,3.889-0.336h0.648V10.72c0-0.56-0.129-0.964-0.385-1.212
		s-0.688-0.372-1.295-0.372c-0.656,0-1.617,0.224-2.881,0.672C92.508,9.936,92.198,10,91.942,10c-0.4,0-0.721-0.144-0.961-0.432
		s-0.359-0.664-0.359-1.128c0-0.352,0.072-0.64,0.217-0.864c0.143-0.224,0.375-0.424,0.695-0.6c0.561-0.288,1.264-0.52,2.111-0.696
		c0.848-0.176,1.68-0.264,2.496-0.264C97.965,6.016,99.313,6.452,100.186,7.324z M96.885,14.836
		c0.367-0.408,0.553-0.932,0.553-1.572v-0.288h-0.385c-1.023,0-1.752,0.092-2.184,0.276s-0.648,0.492-0.648,0.924
		c0,0.368,0.115,0.672,0.348,0.912c0.232,0.24,0.533,0.36,0.9,0.36C96.045,15.448,96.518,15.244,96.885,14.836z"/>
</g>
</svg>
