<?xml version="1.0" encoding="utf-8"?>
<!-- Generator: Adobe Illustrator 16.0.0, SVG Export Plug-In . SVG Version: 6.00 Build 0)  -->
<!DOCTYPE svg PUBLIC "-//W3C//DTD SVG 1.1//EN" "http://www.w3.org/Graphics/SVG/1.1/DTD/svg11.dtd">
<svg version="1.1" id="Layer_1" xmlns="http://www.w3.org/2000/svg" xmlns:xlink="http://www.w3.org/1999/xlink" x="0px" y="0px"
	 width="144.143px" height="25.056px" viewBox="0 0 144.143 25.056" enable-background="new 0 0 144.143 25.056"
	 xml:space="preserve">
<g>
	<path fill="#FFFFFF" d="M18.407,7.445c0.704,0.776,1.056,2.084,1.056,3.924v5.184c0,0.657-0.204,1.149-0.612,1.476
		c-0.408,0.328-0.917,0.492-1.524,0.492c-0.608,0-1.116-0.164-1.524-0.492c-0.408-0.327-0.612-0.819-0.612-1.476v-5.28
		c0-0.64-0.112-1.088-0.336-1.344c-0.224-0.255-0.552-0.384-0.984-0.384c-0.561,0-1.008,0.2-1.344,0.6s-0.504,0.952-0.504,1.656
		v4.752c0,0.657-0.2,1.149-0.6,1.476c-0.4,0.328-0.912,0.492-1.536,0.492c-0.608,0-1.116-0.164-1.524-0.492
		c-0.408-0.327-0.612-0.819-0.612-1.476v-5.28c0-0.64-0.112-1.088-0.336-1.344C7.191,9.674,6.863,9.545,6.432,9.545
		c-0.561,0-1.004,0.2-1.332,0.6c-0.328,0.4-0.492,0.952-0.492,1.656v4.752c0,0.657-0.204,1.149-0.612,1.476
		c-0.408,0.328-0.917,0.492-1.524,0.492s-1.116-0.164-1.524-0.492c-0.408-0.327-0.612-0.819-0.612-1.476V8.25
		c0-0.624,0.212-1.1,0.636-1.428C1.395,6.494,1.903,6.33,2.496,6.33c0.56,0,1.028,0.148,1.404,0.444
		C4.275,7.07,4.471,7.498,4.487,8.058c0.784-1.184,1.984-1.776,3.6-1.776c1.712,0,2.856,0.696,3.432,2.088
		c0.399-0.64,0.936-1.148,1.608-1.524c0.672-0.375,1.432-0.564,2.28-0.564C16.704,6.281,17.703,6.669,18.407,7.445z"/>
	<path fill="#FFFFFF" d="M30.479,6.642c0.304-0.192,0.64-0.288,1.008-0.288c0.528,0,1,0.176,1.416,0.528
		c0.416,0.352,0.624,0.776,0.624,1.272c0,0.272-0.064,0.536-0.192,0.792l-6.36,12.744c-0.192,0.399-0.444,0.696-0.756,0.888
		c-0.312,0.192-0.652,0.288-1.02,0.288c-0.528,0-0.996-0.172-1.404-0.516c-0.408-0.345-0.612-0.765-0.612-1.261
		c0-0.271,0.072-0.551,0.216-0.84l1.56-3.144l-4.08-8.16c-0.128-0.288-0.192-0.543-0.192-0.768c0-0.512,0.224-0.948,0.672-1.308
		c0.448-0.36,0.952-0.54,1.512-0.54c0.384,0,0.74,0.1,1.068,0.3c0.328,0.2,0.58,0.5,0.756,0.9l2.544,5.52l2.52-5.52
		C29.935,7.13,30.175,6.833,30.479,6.642z"/>
	<path fill="#FFFFFF" d="M43.822,16.913c0,0.561-0.216,0.977-0.647,1.248c-0.433,0.271-1.049,0.385-1.848,0.336l-0.672-0.048
		c-1.44-0.111-2.532-0.548-3.276-1.308s-1.116-1.82-1.116-3.18V9.713h-0.696c-1.28,0-1.92-0.528-1.92-1.584
		c0-1.04,0.64-1.56,1.92-1.56h0.696v-1.56c0-0.608,0.192-1.092,0.576-1.452c0.384-0.36,0.904-0.54,1.56-0.54
		c0.656,0,1.176,0.18,1.56,0.54c0.384,0.36,0.576,0.844,0.576,1.452v1.56h1.32c1.28,0,1.92,0.52,1.92,1.56
		c0,1.056-0.64,1.584-1.92,1.584h-1.32v4.608c0,0.304,0.092,0.561,0.276,0.768c0.184,0.208,0.42,0.32,0.708,0.336l0.696,0.048
		C43.286,15.538,43.822,16.018,43.822,16.913z"/>
	<path fill="#FFFFFF" d="M53.842,6.642c0.313-0.192,0.651-0.288,1.021-0.288c0.527,0,0.995,0.176,1.403,0.528
		c0.408,0.352,0.612,0.776,0.612,1.272c0,0.272-0.064,0.536-0.192,0.792l-4.2,8.353c-0.191,0.4-0.468,0.707-0.827,0.924
		c-0.36,0.216-0.757,0.324-1.188,0.324s-0.832-0.108-1.2-0.324c-0.368-0.217-0.647-0.523-0.84-0.924l-4.2-8.353
		c-0.128-0.288-0.191-0.543-0.191-0.768c0-0.512,0.22-0.948,0.66-1.308c0.439-0.36,0.947-0.54,1.523-0.54
		c0.384,0,0.74,0.1,1.068,0.3c0.327,0.2,0.579,0.5,0.756,0.9l2.544,5.496l2.52-5.496C53.286,7.13,53.53,6.833,53.842,6.642z"/>
	<path fill="#FFFFFF" d="M68.434,15.018c0.232,0.288,0.348,0.664,0.348,1.128c0,0.64-0.311,1.128-0.936,1.464
		c-0.543,0.272-1.188,0.501-1.932,0.685c-0.744,0.184-1.428,0.275-2.052,0.275c-1.312,0-2.456-0.248-3.432-0.744
		c-0.977-0.496-1.729-1.208-2.256-2.136c-0.528-0.928-0.792-2.016-0.792-3.264c0-1.184,0.252-2.244,0.756-3.18
		s1.208-1.664,2.112-2.184c0.903-0.52,1.923-0.78,3.06-0.78c1.104,0,2.072,0.24,2.905,0.72c0.83,0.48,1.475,1.16,1.932,2.04
		c0.455,0.88,0.684,1.912,0.684,3.096c0,0.369-0.084,0.652-0.252,0.852c-0.168,0.2-0.412,0.3-0.732,0.3h-6.335
		c0.111,0.768,0.359,1.32,0.744,1.656c0.384,0.336,0.951,0.504,1.704,0.504c0.399,0,0.768-0.043,1.104-0.132
		c0.336-0.088,0.711-0.212,1.127-0.372c0.24-0.096,0.477-0.18,0.709-0.252c0.23-0.072,0.443-0.108,0.635-0.108
		C67.903,14.585,68.202,14.729,68.434,15.018z M62.087,9.702c-0.336,0.36-0.537,0.884-0.601,1.572h3.769
		c-0.097-1.408-0.705-2.112-1.824-2.112C62.87,9.162,62.423,9.341,62.087,9.702z"/>
	<path fill="#FFFFFF" d="M79.079,16.913c0,0.561-0.217,0.977-0.648,1.248s-1.049,0.385-1.848,0.336l-0.672-0.048
		c-1.439-0.111-2.533-0.548-3.275-1.308c-0.744-0.76-1.117-1.82-1.117-3.18V9.713h-0.695c-1.281,0-1.92-0.528-1.92-1.584
		c0-1.04,0.639-1.56,1.92-1.56h0.695v-1.56c0-0.608,0.191-1.092,0.576-1.452c0.385-0.36,0.904-0.54,1.561-0.54
		s1.176,0.18,1.559,0.54c0.385,0.36,0.576,0.844,0.576,1.452v1.56h1.32c1.281,0,1.92,0.52,1.92,1.56c0,1.056-0.639,1.584-1.92,1.584
		h-1.32v4.608c0,0.304,0.092,0.561,0.277,0.768c0.184,0.208,0.42,0.32,0.707,0.336l0.697,0.048
		C78.542,15.538,79.079,16.018,79.079,16.913z"/>
	<path fill="#FFFFFF" d="M81.225,17.85c-0.439-0.448-0.66-1-0.66-1.656c0-0.656,0.221-1.208,0.66-1.656
		c0.441-0.448,0.996-0.672,1.668-0.672c0.656,0,1.205,0.225,1.645,0.672s0.66,1,0.66,1.656c0,0.656-0.221,1.208-0.66,1.656
		s-0.988,0.672-1.645,0.672C82.221,18.521,81.667,18.298,81.225,17.85z"/>
	<path fill="#FFFFFF" d="M88.342,16.938c-1.121-1.088-1.68-2.568-1.68-4.44c0-1.232,0.271-2.32,0.814-3.264
		c0.545-0.944,1.309-1.672,2.293-2.184c0.984-0.512,2.107-0.768,3.371-0.768c0.672,0,1.344,0.088,2.018,0.264
		c0.672,0.176,1.264,0.424,1.775,0.744c0.496,0.304,0.744,0.768,0.744,1.392c0,0.496-0.117,0.9-0.348,1.212
		c-0.232,0.312-0.533,0.468-0.9,0.468c-0.24,0-0.473-0.036-0.697-0.108c-0.223-0.072-0.471-0.18-0.742-0.324
		c-0.32-0.144-0.594-0.252-0.816-0.324c-0.225-0.072-0.473-0.108-0.744-0.108c-1.584,0-2.377,0.968-2.377,2.904
		c0,0.96,0.205,1.692,0.613,2.196c0.408,0.504,0.996,0.756,1.764,0.756c0.271,0,0.523-0.036,0.756-0.108
		c0.232-0.072,0.492-0.18,0.779-0.324c0.32-0.144,0.58-0.252,0.781-0.324c0.199-0.072,0.42-0.108,0.66-0.108
		c0.367,0,0.666,0.156,0.898,0.468s0.35,0.716,0.35,1.212c0,0.304-0.064,0.58-0.193,0.828c-0.127,0.248-0.305,0.437-0.527,0.564
		c-1.104,0.672-2.449,1.008-4.033,1.008C90.981,18.569,89.461,18.026,88.342,16.938z"/>
	<path fill="#FFFFFF" d="M101.747,17.813c-0.984-0.504-1.744-1.22-2.281-2.148c-0.535-0.928-0.803-2.016-0.803-3.264
		s0.268-2.332,0.803-3.252c0.537-0.92,1.293-1.628,2.268-2.124c0.977-0.496,2.121-0.744,3.434-0.744
		c1.311,0,2.455,0.249,3.432,0.744c0.975,0.496,1.73,1.204,2.268,2.124c0.535,0.92,0.805,2.004,0.805,3.252s-0.27,2.336-0.805,3.264
		c-0.537,0.928-1.293,1.644-2.268,2.148c-0.977,0.504-2.121,0.756-3.432,0.756C103.87,18.569,102.729,18.317,101.747,17.813z
		 M107.446,12.401c0-1.984-0.76-2.976-2.279-2.976c-1.521,0-2.281,0.992-2.281,2.976c0,1.984,0.76,2.976,2.281,2.976
		C106.686,15.377,107.446,14.386,107.446,12.401z"/>
	<path fill="#FFFFFF" d="M113.77,17.85c-0.441-0.448-0.66-1-0.66-1.656c0-0.656,0.219-1.208,0.66-1.656
		c0.439-0.448,0.996-0.672,1.668-0.672c0.656,0,1.203,0.225,1.645,0.672c0.439,0.448,0.66,1,0.66,1.656
		c0,0.656-0.221,1.208-0.66,1.656c-0.441,0.448-0.988,0.672-1.645,0.672C114.766,18.521,114.209,18.298,113.77,17.85z"/>
	<path fill="#FFFFFF" d="M130.821,16.793c0,1.056-0.641,1.584-1.92,1.584h-7.561c-0.559,0-1.016-0.176-1.367-0.528
		s-0.527-0.776-0.527-1.272c0-0.528,0.199-1.016,0.6-1.464l5.039-5.4h-3.863c-1.279,0-1.92-0.528-1.92-1.584
		c0-1.04,0.641-1.56,1.92-1.56h7.271c0.561,0,1.016,0.176,1.369,0.528c0.352,0.352,0.527,0.776,0.527,1.272
		c0,0.512-0.201,0.992-0.6,1.44l-5.064,5.424h4.176C130.18,15.233,130.821,15.753,130.821,16.793z"/>
	<path fill="#FFFFFF" d="M141.827,7.589c0.871,0.873,1.307,2.196,1.307,3.972v5.016c0,0.608-0.18,1.083-0.539,1.427
		c-0.359,0.345-0.861,0.517-1.5,0.517c-0.561,0-1.02-0.159-1.381-0.479c-0.359-0.32-0.555-0.752-0.588-1.296
		c-0.225,0.576-0.6,1.024-1.127,1.343c-0.529,0.32-1.16,0.48-1.896,0.48c-0.816,0-1.553-0.164-2.207-0.492
		c-0.656-0.328-1.174-0.783-1.549-1.368c-0.377-0.584-0.564-1.244-0.564-1.98c0-0.848,0.221-1.524,0.66-2.028
		c0.439-0.504,1.141-0.868,2.1-1.092c0.961-0.224,2.256-0.336,3.889-0.336h0.648v-0.288c0-0.56-0.129-0.964-0.385-1.212
		s-0.688-0.372-1.295-0.372c-0.656,0-1.617,0.224-2.881,0.672c-0.369,0.128-0.68,0.192-0.936,0.192c-0.4,0-0.721-0.144-0.961-0.432
		s-0.359-0.664-0.359-1.128c0-0.352,0.072-0.64,0.217-0.864c0.143-0.224,0.375-0.424,0.695-0.6c0.561-0.288,1.264-0.52,2.111-0.696
		c0.848-0.176,1.68-0.264,2.496-0.264C139.606,6.281,140.954,6.718,141.827,7.589z M138.526,15.102
		c0.367-0.408,0.553-0.932,0.553-1.572v-0.288h-0.385c-1.023,0-1.752,0.092-2.184,0.276s-0.648,0.492-0.648,0.924
		c0,0.368,0.115,0.672,0.348,0.912c0.232,0.24,0.533,0.36,0.9,0.36C137.686,15.713,138.159,15.509,138.526,15.102z"/>
</g>
</svg>
