<?xml version="1.0" encoding="utf-8"?>
<!-- Generator: Adobe Illustrator 16.0.0, SVG Export Plug-In . SVG Version: 6.00 Build 0)  -->
<!DOCTYPE svg PUBLIC "-//W3C//DTD SVG 1.1//EN" "http://www.w3.org/Graphics/SVG/1.1/DTD/svg11.dtd">
<svg version="1.1" id="Layer_1" xmlns="http://www.w3.org/2000/svg" xmlns:xlink="http://www.w3.org/1999/xlink" x="0px" y="0px"
	 width="137px" height="27.281px" viewBox="0 0 137 27.281" enable-background="new 0 0 137 27.281" xml:space="preserve">
<g>
	<path fill="#FFFFFF" d="M7.747,5.762H0.475V0.794h20.16v4.968h-7.272v20.521H7.747V5.762z"/>
	<path fill="#FFFFFF" d="M20.958,0.794h6.408l6.3,16.703h0.072l6.408-16.703h6.012L35.646,26.282h-4.5L20.958,0.794z"/>
	<path fill="#FFFFFF" d="M49.038,0.794h17.316v5.184h-11.7v4.752h11.052v5.183H54.654v5.185h12.349v5.185H49.038V0.794z"/>
	<path fill="#FFFFFF" d="M76.434,5.762h-7.271V0.794h20.16v4.968h-7.273v20.521h-5.615V5.762z"/>
	<path fill="#FFFFFF" d="M104.766,7.022c-0.457-0.576-1.074-1.002-1.854-1.278c-0.781-0.275-1.52-0.414-2.215-0.414
		c-0.408,0-0.828,0.048-1.26,0.144c-0.432,0.096-0.84,0.247-1.225,0.45c-0.383,0.204-0.695,0.474-0.936,0.81
		c-0.24,0.336-0.359,0.744-0.359,1.224c0,0.769,0.287,1.356,0.863,1.764c0.576,0.408,1.303,0.756,2.178,1.044
		c0.877,0.288,1.818,0.576,2.826,0.864s1.951,0.696,2.826,1.224c0.877,0.528,1.602,1.237,2.178,2.124
		c0.576,0.889,0.865,2.076,0.865,3.564c0,1.416-0.266,2.652-0.793,3.707c-0.527,1.057-1.242,1.934-2.141,2.629
		c-0.9,0.696-1.945,1.212-3.133,1.548s-2.443,0.504-3.762,0.504c-1.656,0-3.193-0.252-4.609-0.756s-2.734-1.319-3.959-2.448
		l3.996-4.393c0.576,0.77,1.301,1.363,2.178,1.783c0.875,0.42,1.781,0.629,2.719,0.629c0.455,0,0.918-0.053,1.385-0.162
		c0.469-0.107,0.889-0.27,1.26-0.485c0.373-0.216,0.672-0.491,0.9-0.828c0.229-0.335,0.342-0.731,0.342-1.188
		c0-0.768-0.293-1.373-0.881-1.817c-0.59-0.444-1.326-0.821-2.215-1.134s-1.848-0.624-2.879-0.936
		c-1.033-0.312-1.992-0.732-2.881-1.261c-0.889-0.527-1.627-1.224-2.215-2.088c-0.588-0.864-0.881-2.003-0.881-3.42
		c0-1.368,0.27-2.568,0.811-3.6c0.539-1.032,1.26-1.896,2.16-2.592c0.898-0.696,1.938-1.218,3.113-1.566
		c1.176-0.348,2.387-0.522,3.637-0.522c1.439,0,2.83,0.205,4.176,0.612c1.344,0.408,2.555,1.092,3.635,2.052L104.766,7.022z"/>
	<path fill="#FFFFFF" d="M121.217,0.794h4.645l11.088,25.488h-6.336l-2.197-5.4h-9.898l-2.125,5.4h-6.191L121.217,0.794z
		 M123.377,8.21l-3.096,7.92h6.229L123.377,8.21z"/>
</g>
</svg>
