<?xml version="1.0" encoding="utf-8"?>
<!-- Generator: Adobe Illustrator 16.0.0, SVG Export Plug-In . SVG Version: 6.00 Build 0)  -->
<!DOCTYPE svg PUBLIC "-//W3C//DTD SVG 1.1//EN" "http://www.w3.org/Graphics/SVG/1.1/DTD/svg11.dtd">
<svg version="1.1" id="Layer_1" xmlns="http://www.w3.org/2000/svg" xmlns:xlink="http://www.w3.org/1999/xlink" x="0px" y="0px"
	 width="137px" height="27.281px" viewBox="0 0 137 27.281" enable-background="new 0 0 137 27.281" xml:space="preserve">
<g>
	<path fill="#FFFFFF" d="M21.532,2.237v3.24c0,1.152-0.396,1.547-1.547,1.547h-5.328v17.747c0,1.115-0.396,1.512-1.548,1.512H9.042
		c-1.152,0-1.512-0.396-1.512-1.512V7.024H2.167c-1.152,0-1.512-0.396-1.512-1.547v-3.24c0-1.116,0.36-1.512,1.512-1.512h17.818
		C21.136,0.725,21.532,1.121,21.532,2.237z"/>
	<path fill="#FFFFFF" d="M46.3,2.201l-7.955,22.822c-0.36,1.043-0.828,1.26-1.872,1.26h-4.499c-1.044,0-1.548-0.252-1.872-1.188
		L22.111,2.201c-0.36-0.972-0.036-1.476,1.043-1.476h4.104c1.836,0,2.412,0.396,2.7,1.512l3.42,12.311
		c0.576,2.124,0.792,4.643,0.792,4.643h0.324c0,0,0.144-2.483,0.756-4.607l3.419-12.346c0.288-1.116,0.828-1.512,2.592-1.512h4.067
		C46.408,0.725,46.66,1.229,46.3,2.201z"/>
	<path fill="#FFFFFF" d="M66.459,2.237v3.24c0,1.152-0.396,1.547-1.548,1.547H55.41v3.204h7.595c1.151,0,1.548,0.396,1.548,1.512
		v3.239c0,1.152-0.396,1.547-1.548,1.547H55.41v3.456h9.826c1.116,0,1.512,0.36,1.512,1.512v3.276c0,1.115-0.396,1.512-1.512,1.512
		H49.83c-1.151,0-1.548-0.396-1.548-1.512V2.237c0-1.116,0.396-1.512,1.548-1.512h15.082C66.064,0.725,66.459,1.121,66.459,2.237z"
		/>
	<path fill="#FFFFFF" d="M88.959,2.237v3.24c0,1.152-0.396,1.547-1.547,1.547h-5.328v17.747c0,1.115-0.396,1.512-1.547,1.512h-4.068
		c-1.152,0-1.512-0.396-1.512-1.512V7.024h-5.363c-1.152,0-1.512-0.396-1.512-1.547v-3.24c0-1.116,0.36-1.512,1.512-1.512h17.818
		C88.563,0.725,88.959,1.121,88.959,2.237z"/>
	<path fill="#FFFFFF" d="M101.057,0.185c5.326,0,8.352,1.584,10.043,5.04c0.504,1.043,0.215,1.583-0.865,2.016l-3.598,1.548
		c-0.973,0.432-1.369,0.288-1.945-0.756c-0.684-1.368-1.979-1.872-3.635-1.872c-2.447,0-3.42,0.612-3.42,1.872
		c0,1.547,2.123,1.872,4.715,2.195c4.176,0.576,9.576,1.584,9.576,8.387c0,5.292-4.787,8.207-11.16,8.207
		c-5.363,0-9.105-1.836-10.475-5.579c-0.395-1.079-0.07-1.583,0.973-1.979l3.383-1.225c1.08-0.359,1.584-0.252,2.125,0.793
		c0.648,1.26,2.051,1.907,4.066,1.907c2.412,0,3.852-0.504,3.852-2.052c0-1.404-1.836-1.8-4.211-2.123
		c-4.211-0.576-10.115-1.332-10.115-8.315C90.365,3.497,94.182,0.185,101.057,0.185z"/>
	<path fill="#FFFFFF" d="M135.65,26.282h-3.887c-1.873,0-2.412-0.396-2.699-1.512l-0.828-2.592h-7.775l-0.828,2.592
		c-0.359,1.115-0.828,1.512-2.627,1.512h-3.779c-1.117,0-1.332-0.504-0.973-1.477l8.279-22.821c0.359-1.044,0.828-1.26,1.871-1.26
		h4.104c1.045,0,1.512,0.252,1.871,1.188l8.316,22.893C137.055,25.778,136.73,26.282,135.65,26.282z M124.492,7.276h-0.359
		c0,0,0.035,2.592-0.684,5.003l-1.332,4.247h4.498l-1.332-4.211C124.564,9.868,124.492,7.276,124.492,7.276z"/>
</g>
</svg>
