<?xml version="1.0" encoding="utf-8"?>
<!-- Generator: Adobe Illustrator 16.0.0, SVG Export Plug-In . SVG Version: 6.00 Build 0)  -->
<!DOCTYPE svg PUBLIC "-//W3C//DTD SVG 1.1//EN" "http://www.w3.org/Graphics/SVG/1.1/DTD/svg11.dtd">
<svg version="1.1" id="Layer_1" xmlns="http://www.w3.org/2000/svg" xmlns:xlink="http://www.w3.org/1999/xlink" x="0px" y="0px"
	 width="98.372px" height="18.248px" viewBox="0 0 98.372 18.248" enable-background="new 0 0 98.372 18.248" xml:space="preserve">
<g>
	<path fill="#FFFFFF" d="M5.969,3.98H0.593V0.813h14.641V3.98H9.857v13.634H5.969V3.98z"/>
	<path fill="#FFFFFF" d="M33.162,0.813L25.89,17.614h-3.84L14.801,0.813h4.2l5.112,12.001l5.185-12.001H33.162z"/>
	<path fill="#FFFFFF" d="M47.562,14.494v3.121H34.553V0.813H47.25v3.12h-8.833v3.648h7.801v3.024h-7.801v3.889H47.562z"/>
	<path fill="#FFFFFF" d="M54.137,3.98H48.76V0.813h14.642V3.98h-5.377v13.634h-3.888V3.98z"/>
	<path fill="#FFFFFF" d="M64.049,15.958l1.32-2.929c1.416,1.032,3.528,1.752,5.545,1.752c2.304,0,3.24-0.768,3.24-1.8
		c0-3.145-9.77-0.984-9.77-7.225c0-2.856,2.305-5.232,7.081-5.232c2.112,0,4.272,0.504,5.832,1.488l-1.2,2.953
		c-1.56-0.888-3.168-1.32-4.656-1.32c-2.304,0-3.192,0.864-3.192,1.92c0,3.096,9.77,0.96,9.77,7.128
		c0,2.808-2.328,5.208-7.129,5.208C68.226,17.901,65.537,17.11,64.049,15.958z"/>
	<path fill="#FFFFFF" d="M91.746,14.014h-7.801l-1.488,3.601h-3.984l7.488-16.802h3.841l7.513,16.802h-4.081L91.746,14.014z
		 M90.521,11.061l-2.664-6.433l-2.664,6.433H90.521z"/>
</g>
</svg>
