<?xml version="1.0" encoding="utf-8"?>
<!-- Generator: Adobe Illustrator 16.0.0, SVG Export Plug-In . SVG Version: 6.00 Build 0)  -->
<!DOCTYPE svg PUBLIC "-//W3C//DTD SVG 1.1//EN" "http://www.w3.org/Graphics/SVG/1.1/DTD/svg11.dtd">
<svg version="1.1" id="Layer_1" xmlns="http://www.w3.org/2000/svg" xmlns:xlink="http://www.w3.org/1999/xlink" x="0px" y="0px"
	 width="82.771px" height="16.332px" viewBox="0 0 82.771 16.332" enable-background="new 0 0 82.771 16.332" xml:space="preserve">
<g>
	<path fill="#FFFFFF" d="M4.794,3.636H0.552V0.738h11.76v2.898H8.07v11.97H4.794V3.636z"/>
	<path fill="#FFFFFF" d="M12.501,0.738h3.738l3.675,9.744h0.042l3.738-9.744h3.507l-6.132,14.868h-2.625L12.501,0.738z"/>
	<path fill="#FFFFFF" d="M28.881,0.738h10.101v3.024h-6.825v2.772h6.447v3.024h-6.447v3.024h7.203v3.024H28.881V0.738z"/>
	<path fill="#FFFFFF" d="M44.862,3.636H40.62V0.738h11.76v2.898h-4.242v11.97h-3.275V3.636z"/>
	<path fill="#FFFFFF" d="M53.115,14.158l1.155-2.562c1.238,0.903,3.086,1.533,4.85,1.533c2.016,0,2.834-0.672,2.834-1.575
		c0-2.75-8.545-0.861-8.545-6.32c0-2.499,2.016-4.577,6.193-4.577c1.848,0,3.738,0.441,5.103,1.302l-1.05,2.583
		c-1.365-0.777-2.771-1.155-4.073-1.155c-2.016,0-2.792,0.756-2.792,1.68c0,2.708,8.545,0.84,8.545,6.236
		c0,2.457-2.037,4.556-6.236,4.556C56.768,15.858,54.417,15.165,53.115,14.158z"/>
	<path fill="#FFFFFF" d="M77.346,12.457h-6.824l-1.301,3.149h-3.486l6.55-14.697h3.359l6.572,14.697h-3.568L77.346,12.457z
		 M76.275,9.875l-2.33-5.627l-2.332,5.627H76.275z"/>
</g>
</svg>
