<?xml version="1.0" encoding="utf-8"?>
<!-- Generator: Adobe Illustrator 16.0.0, SVG Export Plug-In . SVG Version: 6.00 Build 0)  -->
<!DOCTYPE svg PUBLIC "-//W3C//DTD SVG 1.1//EN" "http://www.w3.org/Graphics/SVG/1.1/DTD/svg11.dtd">
<svg version="1.1" id="Layer_1" xmlns="http://www.w3.org/2000/svg" xmlns:xlink="http://www.w3.org/1999/xlink" x="0px" y="0px"
	 width="92.259px" height="18.248px" viewBox="0 0 92.259 18.248" enable-background="new 0 0 92.259 18.248" xml:space="preserve">
<g>
	<path fill="#FFFFFF" d="M14.706,1.581v2.16c0,0.768-0.264,1.032-1.032,1.032h-3.552v11.833c0,0.744-0.264,1.009-1.032,1.009H6.377
		c-0.768,0-1.008-0.265-1.008-1.009V4.772H1.792c-0.768,0-1.008-0.264-1.008-1.032v-2.16c0-0.744,0.24-1.008,1.008-1.008h11.881
		C14.442,0.572,14.706,0.836,14.706,1.581z"/>
	<path fill="#FFFFFF" d="M31.218,1.556l-5.305,15.218c-0.24,0.695-0.552,0.84-1.248,0.84h-3c-0.696,0-1.032-0.168-1.249-0.793
		L15.089,1.556c-0.24-0.648-0.024-0.984,0.696-0.984h2.736c1.224,0,1.608,0.264,1.8,1.008l2.28,8.208
		c0.384,1.416,0.528,3.096,0.528,3.096h0.216c0,0,0.096-1.656,0.504-3.072l2.28-8.232c0.192-0.744,0.552-1.008,1.728-1.008h2.712
		C31.29,0.572,31.458,0.908,31.218,1.556z"/>
	<path fill="#FFFFFF" d="M44.658,1.581v2.16c0,0.768-0.264,1.032-1.032,1.032h-6.336v2.136h5.064c0.768,0,1.032,0.264,1.032,1.008
		v2.16c0,0.768-0.264,1.032-1.032,1.032h-5.064v2.304h6.552c0.744,0,1.008,0.24,1.008,1.008v2.184c0,0.744-0.264,1.009-1.008,1.009
		H33.569c-0.768,0-1.032-0.265-1.032-1.009V1.581c0-0.744,0.264-1.008,1.032-1.008h10.057C44.394,0.572,44.658,0.836,44.658,1.581z"
		/>
	<path fill="#FFFFFF" d="M59.657,1.581v2.16c0,0.768-0.264,1.032-1.032,1.032h-3.552v11.833c0,0.744-0.265,1.009-1.032,1.009h-2.712
		c-0.769,0-1.009-0.265-1.009-1.009V4.772h-3.576c-0.768,0-1.008-0.264-1.008-1.032v-2.16c0-0.744,0.24-1.008,1.008-1.008h11.881
		C59.394,0.572,59.657,0.836,59.657,1.581z"/>
	<path fill="#FFFFFF" d="M67.721,0.212c3.552,0,5.568,1.056,6.696,3.36c0.336,0.696,0.145,1.056-0.576,1.344l-2.399,1.032
		c-0.648,0.288-0.912,0.192-1.297-0.504c-0.456-0.912-1.32-1.248-2.424-1.248c-1.632,0-2.28,0.408-2.28,1.248
		c0,1.032,1.416,1.248,3.145,1.464c2.784,0.384,6.384,1.056,6.384,5.593c0,3.529-3.191,5.472-7.44,5.472
		c-3.576,0-6.072-1.225-6.984-3.72c-0.264-0.72-0.048-1.056,0.648-1.32l2.256-0.816c0.72-0.24,1.056-0.168,1.416,0.528
		c0.433,0.84,1.368,1.272,2.712,1.272c1.608,0,2.568-0.336,2.568-1.368c0-0.936-1.224-1.2-2.808-1.416
		c-2.809-0.384-6.745-0.888-6.745-5.544C60.592,2.42,63.136,0.212,67.721,0.212z"/>
	<path fill="#FFFFFF" d="M90.786,17.614h-2.593c-1.248,0-1.607-0.265-1.8-1.009l-0.552-1.728h-5.185l-0.553,1.728
		c-0.239,0.744-0.552,1.009-1.752,1.009h-2.521c-0.743,0-0.888-0.336-0.647-0.984l5.521-15.217c0.24-0.696,0.552-0.84,1.248-0.84
		h2.736c0.696,0,1.008,0.168,1.248,0.792l5.544,15.266C91.722,17.278,91.506,17.614,90.786,17.614z M83.345,4.941h-0.239
		c0,0,0.023,1.728-0.456,3.336l-0.889,2.833h3.001l-0.889-2.809C83.394,6.669,83.345,4.941,83.345,4.941z"/>
</g>
</svg>
