<?xml version="1.0" encoding="utf-8"?>
<!-- Generator: Adobe Illustrator 16.0.0, SVG Export Plug-In . SVG Version: 6.00 Build 0)  -->
<!DOCTYPE svg PUBLIC "-//W3C//DTD SVG 1.1//EN" "http://www.w3.org/Graphics/SVG/1.1/DTD/svg11.dtd">
<svg version="1.1" id="Layer_1" xmlns="http://www.w3.org/2000/svg" xmlns:xlink="http://www.w3.org/1999/xlink" x="0px" y="0px"
	 width="80.58px" height="16.332px" viewBox="0 0 80.58 16.332" enable-background="new 0 0 80.58 16.332" xml:space="preserve">
<g>
	<path fill="#FFFFFF" d="M12.835,1.581v1.89c0,0.672-0.231,0.903-0.903,0.903H8.825v10.351c0,0.651-0.231,0.882-0.903,0.882H5.549
		c-0.672,0-0.882-0.23-0.882-0.882V4.374H1.539c-0.672,0-0.882-0.231-0.882-0.903v-1.89c0-0.651,0.21-0.882,0.882-0.882h10.393
		C12.604,0.699,12.835,0.93,12.835,1.581z"/>
	<path fill="#FFFFFF" d="M27.283,1.56l-4.64,13.312c-0.21,0.609-0.483,0.735-1.092,0.735h-2.625c-0.609,0-0.903-0.146-1.092-0.693
		L13.173,1.56c-0.21-0.567-0.021-0.861,0.609-0.861h2.394c1.071,0,1.407,0.231,1.575,0.882l1.995,7.181
		c0.336,1.239,0.462,2.708,0.462,2.708h0.189c0,0,0.084-1.449,0.441-2.688l1.995-7.202C23,0.93,23.314,0.699,24.343,0.699h2.373
		C27.346,0.699,27.493,0.993,27.283,1.56z"/>
	<path fill="#FFFFFF" d="M39.043,1.581v1.89c0,0.672-0.231,0.903-0.903,0.903h-5.543v1.869h4.43c0.672,0,0.903,0.231,0.903,0.882
		v1.89c0,0.672-0.231,0.903-0.903,0.903h-4.43v2.016h5.732c0.651,0,0.882,0.21,0.882,0.882v1.911c0,0.651-0.231,0.882-0.882,0.882
		h-8.986c-0.672,0-0.903-0.23-0.903-0.882V1.581c0-0.651,0.231-0.882,0.903-0.882h8.797C38.812,0.699,39.043,0.93,39.043,1.581z"/>
	<path fill="#FFFFFF" d="M52.167,1.581v1.89c0,0.672-0.231,0.903-0.903,0.903h-3.107v10.351c0,0.651-0.23,0.882-0.902,0.882h-2.373
		c-0.672,0-0.882-0.23-0.882-0.882V4.374h-3.128c-0.672,0-0.882-0.231-0.882-0.903v-1.89c0-0.651,0.21-0.882,0.882-0.882h10.393
		C51.936,0.699,52.167,0.93,52.167,1.581z"/>
	<path fill="#FFFFFF" d="M59.225,0.384c3.107,0,4.871,0.924,5.857,2.939c0.294,0.609,0.126,0.924-0.504,1.176l-2.1,0.903
		c-0.566,0.252-0.798,0.168-1.134-0.441c-0.399-0.798-1.155-1.092-2.12-1.092c-1.428,0-1.995,0.357-1.995,1.092
		c0,0.903,1.239,1.092,2.751,1.281c2.436,0.336,5.584,0.924,5.584,4.892c0,3.086-2.792,4.787-6.508,4.787
		c-3.129,0-5.313-1.07-6.11-3.254c-0.231-0.63-0.042-0.924,0.567-1.155l1.973-0.714c0.631-0.21,0.924-0.147,1.239,0.462
		c0.378,0.735,1.196,1.113,2.372,1.113c1.407,0,2.247-0.294,2.247-1.197c0-0.819-1.071-1.05-2.456-1.239
		c-2.457-0.336-5.9-0.777-5.9-4.85C52.989,2.316,55.214,0.384,59.225,0.384z"/>
	<path fill="#FFFFFF" d="M79.404,15.606h-2.268c-1.092,0-1.406-0.23-1.574-0.882l-0.484-1.512h-4.535l-0.482,1.512
		c-0.209,0.651-0.482,0.882-1.533,0.882h-2.204c-0.651,0-0.776-0.294-0.567-0.861l4.83-13.312c0.209-0.609,0.482-0.735,1.092-0.735
		h2.393c0.609,0,0.883,0.147,1.092,0.693l4.852,13.354C80.223,15.313,80.033,15.606,79.404,15.606z M72.895,4.521h-0.209
		c0,0,0.021,1.512-0.398,2.918L71.51,9.917h2.625L73.357,7.46C72.938,6.032,72.895,4.521,72.895,4.521z"/>
</g>
</svg>
