<?xml version="1.0" encoding="utf-8"?>
<!-- Generator: Adobe Illustrator 16.0.0, SVG Export Plug-In . SVG Version: 6.00 Build 0)  -->
<!DOCTYPE svg PUBLIC "-//W3C//DTD SVG 1.1//EN" "http://www.w3.org/Graphics/SVG/1.1/DTD/svg11.dtd">
<svg version="1.1" id="Layer_1" xmlns="http://www.w3.org/2000/svg" xmlns:xlink="http://www.w3.org/1999/xlink" x="0px" y="0px"
	 width="85.416px" height="16.332px" viewBox="0 0 85.416 16.332" enable-background="new 0 0 85.416 16.332" xml:space="preserve">
<g>
	<path fill="#FFFFFF" d="M5.624,15.196c-0.357-0.342-0.535-0.801-0.535-1.375V3.931H2.127c-0.616,0-1.075-0.129-1.375-0.389
		C0.451,3.283,0.3,2.888,0.3,2.355c0-0.532,0.15-0.924,0.452-1.176c0.301-0.252,0.759-0.378,1.375-0.378h9.828
		c0.616,0,1.075,0.126,1.375,0.378c0.301,0.252,0.452,0.644,0.452,1.176c0,0.532-0.15,0.928-0.452,1.187
		c-0.301,0.259-0.759,0.389-1.375,0.389H8.994v9.891c0,0.574-0.178,1.033-0.535,1.375c-0.357,0.344-0.83,0.516-1.417,0.516
		C6.453,15.712,5.981,15.54,5.624,15.196z"/>
	<path fill="#FFFFFF" d="M26.718,0.948c0.28-0.168,0.588-0.252,0.924-0.252c0.504,0,0.959,0.161,1.365,0.483
		c0.406,0.322,0.609,0.728,0.609,1.218c0,0.238-0.063,0.483-0.189,0.735l-5.544,11.445c-0.182,0.378-0.455,0.668-0.819,0.871
		c-0.364,0.203-0.756,0.305-1.176,0.305s-0.812-0.102-1.176-0.305c-0.364-0.202-0.638-0.493-0.819-0.871L14.349,3.132
		c-0.112-0.224-0.168-0.469-0.168-0.735c0-0.476,0.21-0.878,0.63-1.208c0.42-0.329,0.889-0.494,1.407-0.494
		c0.336,0,0.647,0.084,0.935,0.252c0.287,0.168,0.507,0.42,0.661,0.756l4.137,8.946l4.116-8.946
		C26.221,1.369,26.438,1.116,26.718,0.948z"/>
	<path fill="#FFFFFF" d="M31.506,15.145c-0.308-0.308-0.462-0.749-0.462-1.323V2.586c0-0.574,0.154-1.015,0.462-1.323
		c0.308-0.308,0.749-0.462,1.323-0.462h7.266c0.602,0,1.057,0.126,1.365,0.378c0.308,0.252,0.462,0.616,0.462,1.092
		c0,1.008-0.609,1.512-1.827,1.512h-5.292v2.814h4.872c1.218,0,1.827,0.497,1.827,1.491c0,0.476-0.154,0.84-0.462,1.092
		c-0.308,0.252-0.763,0.378-1.365,0.378h-4.872v3.066h5.292c1.218,0,1.827,0.504,1.827,1.512c0,0.477-0.154,0.84-0.462,1.092
		s-0.763,0.378-1.365,0.378h-7.266C32.254,15.606,31.813,15.452,31.506,15.145z"/>
	<path fill="#FFFFFF" d="M47.792,15.196c-0.357-0.342-0.536-0.801-0.536-1.375V3.931h-2.961c-0.616,0-1.075-0.129-1.375-0.389
		c-0.301-0.259-0.452-0.654-0.452-1.187c0-0.532,0.15-0.924,0.452-1.176c0.301-0.252,0.759-0.378,1.375-0.378h9.827
		c0.617,0,1.074,0.126,1.377,0.378c0.301,0.252,0.451,0.644,0.451,1.176c0,0.532-0.15,0.928-0.451,1.187
		c-0.303,0.259-0.76,0.389-1.377,0.389h-2.961v9.891c0,0.574-0.178,1.033-0.535,1.375c-0.357,0.344-0.83,0.516-1.418,0.516
		S48.147,15.54,47.792,15.196z"/>
	<path fill="#FFFFFF" d="M59.235,15.428c-0.959-0.245-1.746-0.584-2.362-1.018c-0.238-0.182-0.409-0.371-0.515-0.567
		c-0.104-0.196-0.157-0.448-0.157-0.756c0-0.42,0.126-0.784,0.378-1.092s0.546-0.462,0.882-0.462c0.183,0,0.357,0.028,0.525,0.084
		c0.168,0.056,0.378,0.161,0.63,0.315c0.574,0.322,1.145,0.553,1.712,0.693c0.566,0.14,1.207,0.21,1.921,0.21
		c0.826,0,1.452-0.123,1.88-0.368c0.427-0.245,0.641-0.605,0.641-1.082c0-0.322-0.2-0.598-0.599-0.829
		c-0.399-0.231-1.159-0.458-2.278-0.683c-1.387-0.294-2.472-0.644-3.255-1.05c-0.784-0.406-1.334-0.885-1.648-1.438
		c-0.315-0.553-0.473-1.221-0.473-2.005c0-0.896,0.266-1.708,0.798-2.436c0.532-0.728,1.263-1.298,2.194-1.711
		c0.931-0.413,1.978-0.62,3.14-0.62c1.021,0,1.932,0.112,2.729,0.336c0.799,0.224,1.526,0.574,2.185,1.05
		c0.252,0.182,0.431,0.375,0.535,0.578c0.105,0.203,0.157,0.451,0.157,0.745c0,0.42-0.122,0.784-0.367,1.092
		s-0.535,0.462-0.871,0.462c-0.183,0-0.351-0.024-0.504-0.074c-0.154-0.049-0.371-0.157-0.651-0.325
		c-0.07-0.042-0.27-0.15-0.599-0.326c-0.329-0.175-0.714-0.315-1.155-0.42c-0.44-0.105-0.92-0.158-1.438-0.158
		c-0.714,0-1.288,0.137-1.722,0.41s-0.651,0.634-0.651,1.082c0,0.266,0.077,0.483,0.231,0.651s0.441,0.333,0.861,0.494
		c0.42,0.161,1.042,0.326,1.868,0.494c1.345,0.294,2.401,0.647,3.172,1.061c0.77,0.413,1.315,0.892,1.638,1.438
		c0.322,0.546,0.482,1.19,0.482,1.932c0,0.924-0.259,1.74-0.776,2.447c-0.519,0.707-1.243,1.253-2.174,1.638
		s-2.013,0.578-3.244,0.578C61.234,15.796,60.194,15.673,59.235,15.428z"/>
	<path fill="#FFFFFF" d="M84.846,14.01c0,0.462-0.186,0.854-0.557,1.176c-0.371,0.322-0.795,0.482-1.271,0.482
		c-0.322,0-0.615-0.084-0.881-0.252c-0.268-0.168-0.477-0.42-0.631-0.755l-0.945-2.121h-6.803l-0.967,2.121
		c-0.154,0.335-0.367,0.587-0.641,0.755s-0.57,0.252-0.893,0.252c-0.477,0-0.906-0.16-1.291-0.482
		c-0.385-0.322-0.578-0.714-0.578-1.176c0-0.252,0.064-0.511,0.189-0.777l5.545-11.382c0.182-0.378,0.451-0.668,0.809-0.872
		c0.355-0.203,0.752-0.305,1.186-0.305c0.42,0,0.813,0.102,1.176,0.305c0.363,0.203,0.637,0.494,0.818,0.872l5.545,11.382
		C84.781,13.5,84.846,13.758,84.846,14.01z M75.059,9.643h4.201l-2.1-4.683L75.059,9.643z"/>
</g>
</svg>
