<?xml version="1.0" encoding="utf-8"?>
<!-- Generator: Adobe Illustrator 16.0.0, SVG Export Plug-In . SVG Version: 6.00 Build 0)  -->
<!DOCTYPE svg PUBLIC "-//W3C//DTD SVG 1.1//EN" "http://www.w3.org/Graphics/SVG/1.1/DTD/svg11.dtd">
<svg version="1.1" id="Layer_1" xmlns="http://www.w3.org/2000/svg" xmlns:xlink="http://www.w3.org/1999/xlink" x="0px" y="0px"
	 width="86.77px" height="22.901px" viewBox="0 0 86.77 22.901" enable-background="new 0 0 86.77 22.901" xml:space="preserve">
<g>
	<path d="M18.772,6.496c0.704,0.776,1.056,2.084,1.056,3.924v5.184c0,0.656-0.204,1.148-0.612,1.476
		c-0.408,0.328-0.917,0.492-1.524,0.492c-0.608,0-1.116-0.164-1.524-0.492c-0.408-0.327-0.612-0.819-0.612-1.476v-5.28
		c0-0.64-0.112-1.088-0.336-1.344c-0.224-0.255-0.552-0.384-0.984-0.384c-0.561,0-1.008,0.2-1.344,0.6s-0.504,0.952-0.504,1.656
		v4.752c0,0.656-0.2,1.148-0.6,1.476c-0.4,0.328-0.912,0.492-1.536,0.492c-0.608,0-1.116-0.164-1.524-0.492
		c-0.408-0.327-0.612-0.819-0.612-1.476v-5.28c0-0.64-0.112-1.088-0.336-1.344C7.556,8.724,7.229,8.596,6.797,8.596
		c-0.561,0-1.004,0.2-1.332,0.6c-0.328,0.4-0.492,0.952-0.492,1.656v4.752c0,0.656-0.204,1.148-0.612,1.476
		c-0.408,0.328-0.917,0.492-1.524,0.492s-1.116-0.164-1.524-0.492c-0.408-0.327-0.612-0.819-0.612-1.476V7.3
		c0-0.624,0.212-1.1,0.636-1.428C1.76,5.544,2.269,5.38,2.861,5.38c0.56,0,1.028,0.148,1.404,0.444
		C4.641,6.12,4.836,6.548,4.853,7.108c0.784-1.184,1.984-1.776,3.6-1.776c1.712,0,2.856,0.696,3.432,2.088
		c0.399-0.64,0.936-1.148,1.608-1.524c0.672-0.375,1.432-0.564,2.28-0.564C17.069,5.332,18.068,5.72,18.772,6.496z"/>
	<path d="M30.844,5.692c0.304-0.192,0.64-0.288,1.008-0.288c0.528,0,1,0.176,1.416,0.528c0.416,0.352,0.624,0.776,0.624,1.272
		c0,0.272-0.064,0.536-0.192,0.792l-6.36,12.744c-0.192,0.4-0.444,0.696-0.756,0.889c-0.312,0.191-0.652,0.287-1.02,0.287
		c-0.528,0-0.996-0.172-1.404-0.516c-0.408-0.344-0.612-0.764-0.612-1.26c0-0.271,0.072-0.552,0.216-0.84l1.56-3.144l-4.08-8.16
		c-0.128-0.288-0.192-0.543-0.192-0.768c0-0.512,0.224-0.948,0.672-1.308c0.448-0.36,0.952-0.54,1.512-0.54
		c0.384,0,0.74,0.1,1.068,0.3c0.328,0.2,0.58,0.5,0.756,0.9l2.544,5.52l2.52-5.52C30.3,6.18,30.541,5.884,30.844,5.692z"/>
	<path d="M44.188,15.964c0,0.56-0.216,0.977-0.647,1.248c-0.433,0.271-1.049,0.384-1.848,0.336l-0.672-0.049
		c-1.44-0.111-2.532-0.547-3.276-1.307c-0.744-0.76-1.116-1.82-1.116-3.18V8.764h-0.696c-1.28,0-1.92-0.528-1.92-1.584
		c0-1.04,0.64-1.56,1.92-1.56h0.696V4.06c0-0.608,0.192-1.092,0.576-1.452c0.384-0.36,0.904-0.54,1.56-0.54
		c0.656,0,1.176,0.18,1.56,0.54c0.384,0.36,0.576,0.844,0.576,1.452v1.56h1.32c1.28,0,1.92,0.52,1.92,1.56
		c0,1.056-0.64,1.584-1.92,1.584h-1.32v4.608c0,0.304,0.092,0.561,0.276,0.768c0.184,0.208,0.42,0.32,0.708,0.336l0.696,0.048
		C43.651,14.588,44.188,15.068,44.188,15.964z"/>
	<path d="M54.207,5.692c0.313-0.192,0.651-0.288,1.021-0.288c0.527,0,0.995,0.176,1.403,0.528c0.408,0.352,0.612,0.776,0.612,1.272
		c0,0.272-0.064,0.536-0.192,0.792l-4.2,8.352c-0.191,0.4-0.468,0.708-0.827,0.925c-0.36,0.215-0.757,0.323-1.188,0.323
		s-0.832-0.108-1.2-0.323c-0.368-0.217-0.647-0.524-0.84-0.925l-4.2-8.352c-0.128-0.288-0.191-0.543-0.191-0.768
		c0-0.512,0.22-0.948,0.66-1.308c0.439-0.36,0.947-0.54,1.523-0.54c0.384,0,0.74,0.1,1.068,0.3c0.327,0.2,0.579,0.5,0.756,0.9
		l2.544,5.496l2.52-5.496C53.651,6.18,53.896,5.884,54.207,5.692z"/>
	<path d="M68.8,14.068c0.231,0.288,0.348,0.664,0.348,1.128c0,0.64-0.312,1.128-0.936,1.463c-0.544,0.273-1.188,0.501-1.933,0.685
		c-0.743,0.184-1.428,0.276-2.052,0.276c-1.312,0-2.456-0.248-3.432-0.744c-0.977-0.496-1.729-1.208-2.256-2.136
		c-0.528-0.928-0.792-2.016-0.792-3.264c0-1.184,0.252-2.244,0.756-3.18s1.208-1.664,2.112-2.184c0.903-0.52,1.923-0.78,3.06-0.78
		c1.104,0,2.072,0.24,2.904,0.72c0.831,0.48,1.476,1.16,1.932,2.04s0.684,1.912,0.684,3.096c0,0.369-0.084,0.652-0.252,0.852
		c-0.168,0.2-0.412,0.3-0.731,0.3h-6.336c0.111,0.768,0.359,1.32,0.744,1.656c0.384,0.336,0.951,0.504,1.704,0.504
		c0.399,0,0.768-0.043,1.104-0.132c0.336-0.088,0.712-0.212,1.128-0.372c0.24-0.096,0.476-0.18,0.708-0.252
		c0.231-0.072,0.444-0.108,0.636-0.108C68.268,13.636,68.567,13.78,68.8,14.068z M62.452,8.752c-0.336,0.36-0.537,0.884-0.601,1.572
		h3.769c-0.097-1.408-0.705-2.112-1.824-2.112C63.235,8.212,62.788,8.392,62.452,8.752z"/>
	<path d="M79.443,15.964c0,0.56-0.216,0.977-0.647,1.248c-0.433,0.271-1.049,0.384-1.849,0.336l-0.672-0.049
		c-1.439-0.111-2.532-0.547-3.275-1.307c-0.744-0.76-1.116-1.82-1.116-3.18V8.764h-0.696c-1.28,0-1.92-0.528-1.92-1.584
		c0-1.04,0.64-1.56,1.92-1.56h0.696V4.06c0-0.608,0.191-1.092,0.576-1.452c0.384-0.36,0.903-0.54,1.56-0.54s1.176,0.18,1.56,0.54
		c0.385,0.36,0.576,0.844,0.576,1.452v1.56h1.32c1.28,0,1.92,0.52,1.92,1.56c0,1.056-0.64,1.584-1.92,1.584h-1.32v4.608
		c0,0.304,0.092,0.561,0.276,0.768c0.184,0.208,0.42,0.32,0.708,0.336l0.696,0.048C78.907,14.588,79.443,15.068,79.443,15.964z"/>
	<path d="M81.591,16.899c-0.44-0.447-0.66-1-0.66-1.656c0-0.656,0.22-1.208,0.66-1.656s0.996-0.672,1.668-0.672
		c0.656,0,1.204,0.225,1.645,0.672c0.439,0.448,0.66,1,0.66,1.656c0,0.656-0.221,1.208-0.66,1.656
		c-0.44,0.448-0.988,0.672-1.645,0.672C82.587,17.571,82.031,17.348,81.591,16.899z"/>
</g>
</svg>
