<svg id="Layer_1" enable-background="new 0 0 512 512" height="25" viewBox="0 0 512 512" width="25" xmlns="http://www.w3.org/2000/svg"><g><path d="m470 83.515-83.515-83.515h-248.485v308.181c-53.461 3.117-96 47.59-96 101.819 0 56.243 45.757 102 102 102 38.087 0 71.36-20.987 88.876-52h237.124zm-80-63.03 59.515 59.515h-59.515zm-246 479.515c-49.626 0-90-40.374-90-90s40.374-90 90-90 90 40.374 90 90-40.374 90-90 90zm94.653-52c4.734-11.75 7.347-24.575 7.347-38 0-54.229-42.539-98.702-96-101.819v-296.181h228v80h80v356z"/><path d="m192 64h96v12h-96z"/><path d="m192 96h64v12h-64z"/><path d="m192 144h224v12h-224z"/><path d="m192 176h224v12h-224z"/><path d="m192 240h224v12h-224z"/><path d="m192 272h160v12h-160z"/><path d="m192 208h224v12h-224z"/><path d="m336 320h80v12h-80z"/><path d="m180.243 398.243-8.486-8.486-21.757 21.758v-65.515h-12v65.515l-21.757-21.758-8.486 8.486 36.243 36.242z"/><path d="m178 452h-68v-26h-12v38h92v-38h-12z"/></g></svg>