<?xml version="1.0" encoding="utf-8"?>
<!-- Generator: Adobe Illustrator 16.0.0, SVG Export Plug-In . SVG Version: 6.00 Build 0)  -->
<!DOCTYPE svg PUBLIC "-//W3C//DTD SVG 1.1//EN" "http://www.w3.org/Graphics/SVG/1.1/DTD/svg11.dtd">
<svg version="1.1" id="Layer_1" xmlns="http://www.w3.org/2000/svg" xmlns:xlink="http://www.w3.org/1999/xlink" x="0px" y="0px"
	 width="22px" height="22px" viewBox="0 0 20 20" enable-background="new 0 0 20 20" xml:space="preserve">
<path fill="#00ACEA" d="M12.669,0.147H4.47c-1.234,0-2.254,1.015-2.254,2.249v15.502c0,1.232,1.02,2.249,2.254,2.249h11.125
	c1.234,0,2.254-1.017,2.254-2.249V5.583L12.669,0.147z"/>
<path fill="#00EFD1" d="M12.692,0.163l5.164,5.426h-3.438c-0.955,0-1.727-0.771-1.727-1.725V0.163z"/>
<g>
	<path fill="#083863" d="M14.211,16.138H5.856c-0.279,0-0.508,0.228-0.508,0.505c0,0.281,0.229,0.508,0.508,0.508h8.36
		c0.278,0,0.507-0.229,0.507-0.508C14.724,16.365,14.495,16.138,14.211,16.138z"/>
	<path fill="#083863" d="M9.663,14.314c0.096,0.102,0.229,0.163,0.37,0.163c0.141,0,0.273-0.062,0.37-0.163l2.971-3.194
		c0.191-0.202,0.177-0.526-0.027-0.715c-0.202-0.192-0.527-0.177-0.715,0.026l-2.09,2.249V7.136c0-0.279-0.229-0.507-0.507-0.507
		c-0.28,0-0.507,0.229-0.507,0.507v5.543l-2.091-2.249c-0.194-0.202-0.513-0.219-0.716-0.025C6.515,10.6,6.5,10.918,6.692,11.12
		L9.663,14.314z"/>
</g>
</svg>
