<?xml version="1.0" encoding="utf-8"?>
<!-- Generator: Adobe Illustrator 16.0.0, SVG Export Plug-In . SVG Version: 6.00 Build 0)  -->
<!DOCTYPE svg PUBLIC "-//W3C//DTD SVG 1.1//EN" "http://www.w3.org/Graphics/SVG/1.1/DTD/svg11.dtd">
<svg version="1.1" id="Layer_1" xmlns="http://www.w3.org/2000/svg" xmlns:xlink="http://www.w3.org/1999/xlink" x="0px" y="0px"
	 width="22px" height="22px" viewBox="0 0 511 511" enable-background="new 0 0 511 511" xml:space="preserve">
<g id="surface1">
	<path fill="#242424" d="M351.806,2.537c-2.343-2.469-5.555-3.949-8.885-3.949H143.58c-36.783,0-67.146,30.241-67.146,67.021
		v376.954c0,36.783,30.363,67.024,67.146,67.024h270.558c36.783,0,67.146-30.241,67.146-67.024V143.246
		c0-3.208-1.48-6.292-3.579-8.641L351.806,2.537z M355.386,42.158l84.303,88.498h-54.803c-16.293,0-29.501-13.083-29.501-29.376
		L355.386,42.158L355.386,42.158z M414.138,484.903H143.58c-23.08,0-42.46-19.131-42.46-42.339V65.61
		c0-23.08,19.255-42.336,42.46-42.336h187.119v78.008c0,29.992,24.194,54.063,54.187,54.063h71.711v287.22
		C456.597,465.772,437.342,484.903,414.138,484.903z"/>
	<path fill="#242424" d="M380.44,399.737H177.276c-6.788,0-12.343,5.552-12.343,12.344c0,6.787,5.556,12.344,12.343,12.344h203.29
		c6.787,0,12.344-5.557,12.344-12.344C392.909,405.287,387.353,399.737,380.44,399.737z"/>
	<path fill="#242424" d="M269.85,355.425c2.347,2.468,5.556,3.948,9.01,3.948c3.457,0,6.666-1.48,9.01-3.948l72.332-77.637
		c4.688-4.939,4.319-12.84-0.616-17.403c-4.939-4.69-12.839-4.324-17.402,0.615l-50.979,54.679V180.896
		c0-6.792-5.555-12.344-12.344-12.344c-6.787,0-12.342,5.552-12.342,12.344v134.783L215.663,261
		c-4.69-4.937-12.468-5.307-17.404-0.615c-4.936,4.688-5.306,12.468-0.616,17.403L269.85,355.425z"/>
</g>
</svg>
