<?xml version="1.0" encoding="utf-8"?>
<!-- Generator: Adobe Illustrator 16.0.0, SVG Export Plug-In . SVG Version: 6.00 Build 0)  -->
<!DOCTYPE svg PUBLIC "-//W3C//DTD SVG 1.1//EN" "http://www.w3.org/Graphics/SVG/1.1/DTD/svg11.dtd">
<svg version="1.1" id="Capa_1" xmlns="http://www.w3.org/2000/svg" xmlns:xlink="http://www.w3.org/1999/xlink" x="0px" y="0px"
	 width="25px" height="25px" viewBox="56 5.5 25 25" enable-background="new 56 5.5 25 25" xml:space="preserve">
<g>
	<path d="M74.146,21.166c-0.874-0.873-1.793-1.598-1.831-1.629c-0.152-0.119-0.37-0.107-0.507,0.03l-1.084,1.083l-2.907-2.907
		c-0.149-0.149-0.392-0.149-0.541,0c-0.15,0.149-0.15,0.392,0,0.542l3.178,3.177c0.149,0.15,0.393,0.15,0.542,0l1.109-1.109
		c0.334,0.275,0.934,0.788,1.499,1.354c0.568,0.568,1.081,1.17,1.356,1.502c-0.515,0.502-1.48,1.308-2.198,1.374
		c-1.477,0.137-4.27-1.53-6.792-4.054c-2.522-2.522-4.189-5.315-4.053-6.792c0.065-0.718,0.872-1.684,1.373-2.198
		c0.333,0.274,0.933,0.788,1.502,1.356c0.566,0.566,1.078,1.166,1.354,1.499l-1.109,1.11c-0.072,0.072-0.112,0.169-0.112,0.271
		c0,0.102,0.04,0.199,0.112,0.271l1.156,1.155c0.149,0.15,0.392,0.15,0.541,0c0.149-0.149,0.149-0.392,0-0.542l-0.885-0.885
		l1.083-1.083c0.137-0.137,0.15-0.355,0.03-0.507c-0.03-0.039-0.755-0.958-1.628-1.831c-0.874-0.874-1.793-1.598-1.831-1.628
		c-0.148-0.116-0.358-0.108-0.496,0.02c-0.178,0.163-1.734,1.629-1.853,2.922c-0.159,1.714,1.559,4.689,4.273,7.405
		c2.6,2.599,5.438,4.284,7.179,4.284c0.077,0,0.152-0.004,0.226-0.011c1.293-0.119,2.76-1.676,2.922-1.853
		c0.128-0.139,0.136-0.349,0.02-0.496C75.744,22.957,75.02,22.039,74.146,21.166z"/>
	<path d="M76.896,9.603C74.654,7.36,71.672,6.125,68.5,6.125s-6.154,1.235-8.396,3.478c-2.244,2.243-3.479,5.225-3.479,8.397
		c0,2.338,0.676,4.592,1.958,6.533l-1.45,4.35c-0.046,0.138-0.01,0.289,0.093,0.392c0.103,0.104,0.254,0.139,0.392,0.093
		l4.349-1.449c1.941,1.28,4.196,1.957,6.533,1.957c3.172,0,6.154-1.235,8.396-3.478c2.243-2.243,3.479-5.226,3.479-8.397
		S79.14,11.846,76.896,9.603z M68.5,29.109c-2.246,0-4.411-0.669-6.259-1.932c-0.064-0.043-0.141-0.066-0.217-0.066
		c-0.04,0-0.081,0.006-0.121,0.02l-3.801,1.268l1.267-3.802c0.038-0.114,0.021-0.238-0.047-0.337
		c-1.264-1.85-1.931-4.014-1.931-6.26c0-6.125,4.984-11.109,11.109-11.109c6.126,0,11.109,4.983,11.109,11.109
		C79.609,24.125,74.626,29.109,68.5,29.109z"/>
</g>
</svg>
