<?xml version="1.0" encoding="utf-8"?>
<!-- Generator: Adobe Illustrator 16.0.0, SVG Export Plug-In . SVG Version: 6.00 Build 0)  -->
<!DOCTYPE svg PUBLIC "-//W3C//DTD SVG 1.1//EN" "http://www.w3.org/Graphics/SVG/1.1/DTD/svg11.dtd">
<svg version="1.1" id="Capa_1" xmlns="http://www.w3.org/2000/svg" xmlns:xlink="http://www.w3.org/1999/xlink" x="0px" y="0px"
	 width="25px" height="25px" viewBox="55.875 5.5 25 25" enable-background="new 55.875 5.5 25 25" xml:space="preserve">
<path fill="#4CAF50" d="M68.625,6.475h-0.004l0,0c-6.612,0-11.988,5.278-11.988,11.768c0,2.574,0.845,4.962,2.283,6.897
	l-1.494,4.374l4.608-1.448c1.896,1.234,4.158,1.945,6.596,1.945c6.613,0,11.988-5.278,11.988-11.769
	C80.613,11.754,75.238,6.475,68.625,6.475z"/>
<path fill="#FAFAFA" d="M75.603,23.095c-0.289,0.8-1.438,1.467-2.354,1.659c-0.624,0.13-1.443,0.236-4.199-0.885
	c-3.523-1.434-5.792-4.948-5.969-5.175c-0.17-0.228-1.424-1.862-1.424-3.551s0.873-2.511,1.227-2.864
	c0.289-0.29,0.767-0.42,1.226-0.42c0.148,0,0.282,0.005,0.402,0.012c0.351,0.013,0.529,0.036,0.762,0.581
	c0.288,0.683,0.994,2.373,1.078,2.546c0.084,0.174,0.17,0.41,0.049,0.637c-0.111,0.236-0.21,0.339-0.387,0.539
	s-0.345,0.354-0.522,0.569c-0.161,0.187-0.345,0.386-0.141,0.732c0.204,0.337,0.909,1.467,1.946,2.373
	c1.338,1.17,2.422,1.543,2.811,1.704c0.29,0.114,0.634,0.09,0.847-0.132c0.267-0.285,0.599-0.755,0.938-1.22
	c0.238-0.333,0.542-0.373,0.857-0.255c0.325,0.108,2.037,0.942,2.39,1.113c0.353,0.175,0.584,0.255,0.671,0.401
	C75.891,21.607,75.891,22.288,75.603,23.095z"/>
</svg>
